# kid_hassan — generated by Tools/make_street_models.py (do not hand-edit)
mtllib kid_hassan.mtl
o kid_hassan
v -0.115000 0.000000 -0.060000
v -0.025000 0.000000 -0.060000
v -0.025000 0.060000 -0.060000
v -0.115000 0.060000 -0.060000
v -0.115000 0.000000 0.100000
v -0.025000 0.000000 0.100000
v -0.025000 0.060000 0.100000
v -0.115000 0.060000 0.100000
v 0.025000 0.000000 -0.060000
v 0.115000 0.000000 -0.060000
v 0.115000 0.060000 -0.060000
v 0.025000 0.060000 -0.060000
v 0.025000 0.000000 0.100000
v 0.115000 0.000000 0.100000
v 0.115000 0.060000 0.100000
v 0.025000 0.060000 0.100000
v -0.120000 0.060000 -0.055000
v -0.020000 0.060000 -0.055000
v -0.020000 0.405000 -0.055000
v -0.120000 0.405000 -0.055000
v -0.120000 0.060000 0.055000
v -0.020000 0.060000 0.055000
v -0.020000 0.405000 0.055000
v -0.120000 0.405000 0.055000
v 0.020000 0.060000 -0.055000
v 0.120000 0.060000 -0.055000
v 0.120000 0.405000 -0.055000
v 0.020000 0.405000 -0.055000
v 0.020000 0.060000 0.055000
v 0.120000 0.060000 0.055000
v 0.120000 0.405000 0.055000
v 0.020000 0.405000 0.055000
v -0.130000 0.405000 -0.085000
v 0.130000 0.405000 -0.085000
v 0.130000 0.565000 -0.085000
v -0.130000 0.565000 -0.085000
v -0.130000 0.405000 0.085000
v 0.130000 0.405000 0.085000
v 0.130000 0.565000 0.085000
v -0.130000 0.565000 0.085000
v -0.140000 0.565000 -0.090000
v 0.140000 0.565000 -0.090000
v 0.140000 0.933000 -0.090000
v -0.140000 0.933000 -0.090000
v -0.140000 0.565000 0.090000
v 0.140000 0.565000 0.090000
v 0.140000 0.933000 0.090000
v -0.140000 0.933000 0.090000
v -0.215000 0.833000 -0.045000
v -0.135000 0.833000 -0.045000
v -0.135000 0.933000 -0.045000
v -0.215000 0.933000 -0.045000
v -0.215000 0.833000 0.045000
v -0.135000 0.833000 0.045000
v -0.135000 0.933000 0.045000
v -0.215000 0.933000 0.045000
v -0.210000 0.557000 -0.040000
v -0.140000 0.557000 -0.040000
v -0.140000 0.833000 -0.040000
v -0.210000 0.833000 -0.040000
v -0.210000 0.557000 0.040000
v -0.140000 0.557000 0.040000
v -0.140000 0.833000 0.040000
v -0.210000 0.833000 0.040000
v 0.135000 0.833000 -0.045000
v 0.215000 0.833000 -0.045000
v 0.215000 0.933000 -0.045000
v 0.135000 0.933000 -0.045000
v 0.135000 0.833000 0.045000
v 0.215000 0.833000 0.045000
v 0.215000 0.933000 0.045000
v 0.135000 0.933000 0.045000
v 0.140000 0.557000 -0.040000
v 0.210000 0.557000 -0.040000
v 0.210000 0.833000 -0.040000
v 0.140000 0.833000 -0.040000
v 0.140000 0.557000 0.040000
v 0.210000 0.557000 0.040000
v 0.210000 0.833000 0.040000
v 0.140000 0.833000 0.040000
v -0.100000 0.933000 -0.100000
v 0.100000 0.933000 -0.100000
v 0.100000 1.153000 -0.100000
v -0.100000 1.153000 -0.100000
v -0.100000 0.933000 0.100000
v 0.100000 0.933000 0.100000
v 0.100000 1.153000 0.100000
v -0.100000 1.153000 0.100000
v -0.062500 1.048000 0.094000
v -0.037500 1.048000 0.094000
v -0.037500 1.078000 0.094000
v -0.062500 1.078000 0.094000
v -0.062500 1.048000 0.106000
v -0.037500 1.048000 0.106000
v -0.037500 1.078000 0.106000
v -0.062500 1.078000 0.106000
v 0.037500 1.048000 0.094000
v 0.062500 1.048000 0.094000
v 0.062500 1.078000 0.094000
v 0.037500 1.078000 0.094000
v 0.037500 1.048000 0.106000
v 0.062500 1.048000 0.106000
v 0.062500 1.078000 0.106000
v 0.037500 1.078000 0.106000
v -0.105000 1.083000 -0.105000
v 0.105000 1.083000 -0.105000
v 0.105000 1.163000 -0.105000
v -0.105000 1.163000 -0.105000
v -0.105000 1.083000 0.105000
v 0.105000 1.083000 0.105000
v 0.105000 1.163000 0.105000
v -0.105000 1.163000 0.105000
v -0.105000 0.973000 -0.120000
v 0.105000 0.973000 -0.120000
v 0.105000 1.093000 -0.120000
v -0.105000 1.093000 -0.120000
v -0.105000 0.973000 -0.080000
v 0.105000 0.973000 -0.080000
v 0.105000 1.093000 -0.080000
v -0.105000 1.093000 -0.080000
vn 0.000000 0.000000 1.000000
vn 0.000000 0.000000 -1.000000
vn 1.000000 0.000000 0.000000
vn -1.000000 0.000000 0.000000
vn 0.000000 1.000000 0.000000
vn 0.000000 -1.000000 0.000000
vn 0.000000 0.000000 1.000000
vn 0.000000 0.000000 -1.000000
vn 1.000000 0.000000 0.000000
vn -1.000000 0.000000 0.000000
vn 0.000000 1.000000 0.000000
vn 0.000000 -1.000000 0.000000
vn 0.000000 0.000000 1.000000
vn 0.000000 0.000000 -1.000000
vn 1.000000 0.000000 0.000000
vn -1.000000 0.000000 0.000000
vn 0.000000 1.000000 0.000000
vn 0.000000 -1.000000 0.000000
vn 0.000000 0.000000 1.000000
vn 0.000000 0.000000 -1.000000
vn 1.000000 0.000000 0.000000
vn -1.000000 0.000000 0.000000
vn 0.000000 1.000000 0.000000
vn 0.000000 -1.000000 0.000000
vn 0.000000 0.000000 1.000000
vn 0.000000 0.000000 -1.000000
vn 1.000000 0.000000 0.000000
vn -1.000000 0.000000 0.000000
vn 0.000000 1.000000 0.000000
vn 0.000000 -1.000000 0.000000
vn 0.000000 0.000000 1.000000
vn 0.000000 0.000000 -1.000000
vn 1.000000 0.000000 0.000000
vn -1.000000 0.000000 0.000000
vn 0.000000 1.000000 0.000000
vn 0.000000 -1.000000 0.000000
vn 0.000000 0.000000 1.000000
vn 0.000000 0.000000 -1.000000
vn 1.000000 0.000000 0.000000
vn -1.000000 0.000000 0.000000
vn 0.000000 1.000000 0.000000
vn 0.000000 -1.000000 0.000000
vn 0.000000 0.000000 1.000000
vn 0.000000 0.000000 -1.000000
vn 1.000000 0.000000 0.000000
vn -1.000000 0.000000 0.000000
vn 0.000000 1.000000 0.000000
vn 0.000000 -1.000000 0.000000
vn 0.000000 0.000000 1.000000
vn 0.000000 0.000000 -1.000000
vn 1.000000 0.000000 0.000000
vn -1.000000 0.000000 0.000000
vn 0.000000 1.000000 0.000000
vn 0.000000 -1.000000 0.000000
vn 0.000000 0.000000 1.000000
vn 0.000000 0.000000 -1.000000
vn 1.000000 0.000000 0.000000
vn -1.000000 0.000000 0.000000
vn 0.000000 1.000000 0.000000
vn 0.000000 -1.000000 0.000000
vn 0.000000 0.000000 1.000000
vn 0.000000 0.000000 -1.000000
vn 1.000000 0.000000 0.000000
vn -1.000000 0.000000 0.000000
vn 0.000000 1.000000 0.000000
vn 0.000000 -1.000000 0.000000
vn 0.000000 0.000000 1.000000
vn 0.000000 0.000000 -1.000000
vn 1.000000 0.000000 0.000000
vn -1.000000 0.000000 0.000000
vn 0.000000 1.000000 0.000000
vn 0.000000 -1.000000 0.000000
vn 0.000000 0.000000 1.000000
vn 0.000000 0.000000 -1.000000
vn 1.000000 0.000000 0.000000
vn -1.000000 0.000000 0.000000
vn 0.000000 1.000000 0.000000
vn 0.000000 -1.000000 0.000000
vn 0.000000 0.000000 1.000000
vn 0.000000 0.000000 -1.000000
vn 1.000000 0.000000 0.000000
vn -1.000000 0.000000 0.000000
vn 0.000000 1.000000 0.000000
vn 0.000000 -1.000000 0.000000
vn 0.000000 0.000000 1.000000
vn 0.000000 0.000000 -1.000000
vn 1.000000 0.000000 0.000000
vn -1.000000 0.000000 0.000000
vn 0.000000 1.000000 0.000000
vn 0.000000 -1.000000 0.000000
usemtl shoes
f 5//1 6//1 7//1 8//1
f 2//2 1//2 4//2 3//2
f 6//3 2//3 3//3 7//3
f 1//4 5//4 8//4 4//4
f 4//5 8//5 7//5 3//5
f 1//6 2//6 6//6 5//6
f 13//7 14//7 15//7 16//7
f 10//8 9//8 12//8 11//8
f 14//9 10//9 11//9 15//9
f 9//10 13//10 16//10 12//10
f 12//11 16//11 15//11 11//11
f 9//12 10//12 14//12 13//12
usemtl shorts
f 21//13 22//13 23//13 24//13
f 18//14 17//14 20//14 19//14
f 22//15 18//15 19//15 23//15
f 17//16 21//16 24//16 20//16
f 20//17 24//17 23//17 19//17
f 17//18 18//18 22//18 21//18
f 29//19 30//19 31//19 32//19
f 26//20 25//20 28//20 27//20
f 30//21 26//21 27//21 31//21
f 25//22 29//22 32//22 28//22
f 28//23 32//23 31//23 27//23
f 25//24 26//24 30//24 29//24
f 37//25 38//25 39//25 40//25
f 34//26 33//26 36//26 35//26
f 38//27 34//27 35//27 39//27
f 33//28 37//28 40//28 36//28
f 36//29 40//29 39//29 35//29
f 33//30 34//30 38//30 37//30
usemtl shirt
f 45//31 46//31 47//31 48//31
f 42//32 41//32 44//32 43//32
f 46//33 42//33 43//33 47//33
f 41//34 45//34 48//34 44//34
f 44//35 48//35 47//35 43//35
f 41//36 42//36 46//36 45//36
f 53//37 54//37 55//37 56//37
f 50//38 49//38 52//38 51//38
f 54//39 50//39 51//39 55//39
f 49//40 53//40 56//40 52//40
f 52//41 56//41 55//41 51//41
f 49//42 50//42 54//42 53//42
usemtl skin
f 61//43 62//43 63//43 64//43
f 58//44 57//44 60//44 59//44
f 62//45 58//45 59//45 63//45
f 57//46 61//46 64//46 60//46
f 60//47 64//47 63//47 59//47
f 57//48 58//48 62//48 61//48
usemtl shirt
f 69//49 70//49 71//49 72//49
f 66//50 65//50 68//50 67//50
f 70//51 66//51 67//51 71//51
f 65//52 69//52 72//52 68//52
f 68//53 72//53 71//53 67//53
f 65//54 66//54 70//54 69//54
usemtl skin
f 77//55 78//55 79//55 80//55
f 74//56 73//56 76//56 75//56
f 78//57 74//57 75//57 79//57
f 73//58 77//58 80//58 76//58
f 76//59 80//59 79//59 75//59
f 73//60 74//60 78//60 77//60
f 85//61 86//61 87//61 88//61
f 82//62 81//62 84//62 83//62
f 86//63 82//63 83//63 87//63
f 81//64 85//64 88//64 84//64
f 84//65 88//65 87//65 83//65
f 81//66 82//66 86//66 85//66
usemtl eyes
f 93//67 94//67 95//67 96//67
f 90//68 89//68 92//68 91//68
f 94//69 90//69 91//69 95//69
f 89//70 93//70 96//70 92//70
f 92//71 96//71 95//71 91//71
f 89//72 90//72 94//72 93//72
f 101//73 102//73 103//73 104//73
f 98//74 97//74 100//74 99//74
f 102//75 98//75 99//75 103//75
f 97//76 101//76 104//76 100//76
f 100//77 104//77 103//77 99//77
f 97//78 98//78 102//78 101//78
usemtl hair
f 109//79 110//79 111//79 112//79
f 106//80 105//80 108//80 107//80
f 110//81 106//81 107//81 111//81
f 105//82 109//82 112//82 108//82
f 108//83 112//83 111//83 107//83
f 105//84 106//84 110//84 109//84
f 117//85 118//85 119//85 120//85
f 114//86 113//86 116//86 115//86
f 118//87 114//87 115//87 119//87
f 113//88 117//88 120//88 116//88
f 116//89 120//89 119//89 115//89
f 113//90 114//90 118//90 117//90
