# kid_ali — generated by Tools/make_street_models.py (do not hand-edit)
mtllib kid_ali.mtl
o kid_ali
v -0.115000 0.000000 -0.060000
v -0.025000 0.000000 -0.060000
v -0.025000 0.060000 -0.060000
v -0.115000 0.060000 -0.060000
v -0.115000 0.000000 0.100000
v -0.025000 0.000000 0.100000
v -0.025000 0.060000 0.100000
v -0.115000 0.060000 0.100000
v 0.025000 0.000000 -0.060000
v 0.115000 0.000000 -0.060000
v 0.115000 0.060000 -0.060000
v 0.025000 0.060000 -0.060000
v 0.025000 0.000000 0.100000
v 0.115000 0.000000 0.100000
v 0.115000 0.060000 0.100000
v 0.025000 0.060000 0.100000
v -0.120000 0.060000 -0.055000
v -0.020000 0.060000 -0.055000
v -0.020000 0.360000 -0.055000
v -0.120000 0.360000 -0.055000
v -0.120000 0.060000 0.055000
v -0.020000 0.060000 0.055000
v -0.020000 0.360000 0.055000
v -0.120000 0.360000 0.055000
v 0.020000 0.060000 -0.055000
v 0.120000 0.060000 -0.055000
v 0.120000 0.360000 -0.055000
v 0.020000 0.360000 -0.055000
v 0.020000 0.060000 0.055000
v 0.120000 0.060000 0.055000
v 0.120000 0.360000 0.055000
v 0.020000 0.360000 0.055000
v -0.130000 0.360000 -0.085000
v 0.130000 0.360000 -0.085000
v 0.130000 0.520000 -0.085000
v -0.130000 0.520000 -0.085000
v -0.130000 0.360000 0.085000
v 0.130000 0.360000 0.085000
v 0.130000 0.520000 0.085000
v -0.130000 0.520000 0.085000
v -0.140000 0.519500 -0.090000
v 0.140000 0.519500 -0.090000
v 0.140000 0.600500 -0.090000
v -0.140000 0.600500 -0.090000
v -0.140000 0.519500 0.090000
v 0.140000 0.519500 0.090000
v 0.140000 0.600500 0.090000
v -0.140000 0.600500 0.090000
v -0.140000 0.599500 -0.090000
v 0.140000 0.599500 -0.090000
v 0.140000 0.680500 -0.090000
v -0.140000 0.680500 -0.090000
v -0.140000 0.599500 0.090000
v 0.140000 0.599500 0.090000
v 0.140000 0.680500 0.090000
v -0.140000 0.680500 0.090000
v -0.140000 0.679500 -0.090000
v 0.140000 0.679500 -0.090000
v 0.140000 0.760500 -0.090000
v -0.140000 0.760500 -0.090000
v -0.140000 0.679500 0.090000
v 0.140000 0.679500 0.090000
v 0.140000 0.760500 0.090000
v -0.140000 0.760500 0.090000
v -0.140000 0.759500 -0.090000
v 0.140000 0.759500 -0.090000
v 0.140000 0.840500 -0.090000
v -0.140000 0.840500 -0.090000
v -0.140000 0.759500 0.090000
v 0.140000 0.759500 0.090000
v 0.140000 0.840500 0.090000
v -0.140000 0.840500 0.090000
v -0.215000 0.740000 -0.045000
v -0.135000 0.740000 -0.045000
v -0.135000 0.840000 -0.045000
v -0.215000 0.840000 -0.045000
v -0.215000 0.740000 0.045000
v -0.135000 0.740000 0.045000
v -0.135000 0.840000 0.045000
v -0.215000 0.840000 0.045000
v -0.210000 0.500000 -0.040000
v -0.140000 0.500000 -0.040000
v -0.140000 0.740000 -0.040000
v -0.210000 0.740000 -0.040000
v -0.210000 0.500000 0.040000
v -0.140000 0.500000 0.040000
v -0.140000 0.740000 0.040000
v -0.210000 0.740000 0.040000
v 0.135000 0.740000 -0.045000
v 0.215000 0.740000 -0.045000
v 0.215000 0.840000 -0.045000
v 0.135000 0.840000 -0.045000
v 0.135000 0.740000 0.045000
v 0.215000 0.740000 0.045000
v 0.215000 0.840000 0.045000
v 0.135000 0.840000 0.045000
v 0.140000 0.500000 -0.040000
v 0.210000 0.500000 -0.040000
v 0.210000 0.740000 -0.040000
v 0.140000 0.740000 -0.040000
v 0.140000 0.500000 0.040000
v 0.210000 0.500000 0.040000
v 0.210000 0.740000 0.040000
v 0.140000 0.740000 0.040000
v -0.100000 0.840000 -0.100000
v 0.100000 0.840000 -0.100000
v 0.100000 1.060000 -0.100000
v -0.100000 1.060000 -0.100000
v -0.100000 0.840000 0.100000
v 0.100000 0.840000 0.100000
v 0.100000 1.060000 0.100000
v -0.100000 1.060000 0.100000
v -0.062500 0.955000 0.094000
v -0.037500 0.955000 0.094000
v -0.037500 0.985000 0.094000
v -0.062500 0.985000 0.094000
v -0.062500 0.955000 0.106000
v -0.037500 0.955000 0.106000
v -0.037500 0.985000 0.106000
v -0.062500 0.985000 0.106000
v 0.037500 0.955000 0.094000
v 0.062500 0.955000 0.094000
v 0.062500 0.985000 0.094000
v 0.037500 0.985000 0.094000
v 0.037500 0.955000 0.106000
v 0.062500 0.955000 0.106000
v 0.062500 0.985000 0.106000
v 0.037500 0.985000 0.106000
v 0.115000 1.110000 0.000000
v 0.125000 1.040000 0.000000
v 0.103611 1.110000 0.049897
v 0.112621 1.040000 0.054235
v 0.071701 1.110000 0.089911
v 0.077936 1.040000 0.097729
v 0.025590 1.110000 0.112117
v 0.027815 1.040000 0.121866
v -0.025590 1.110000 0.112117
v -0.027815 1.040000 0.121866
v -0.071701 1.110000 0.089911
v -0.077936 1.040000 0.097729
v -0.103611 1.110000 0.049897
v -0.112621 1.040000 0.054235
v -0.115000 1.110000 0.000000
v -0.125000 1.040000 0.000000
v -0.103611 1.110000 -0.049897
v -0.112621 1.040000 -0.054235
v -0.071701 1.110000 -0.089911
v -0.077936 1.040000 -0.097729
v -0.025590 1.110000 -0.112117
v -0.027815 1.040000 -0.121866
v 0.025590 1.110000 -0.112117
v 0.027815 1.040000 -0.121866
v 0.071701 1.110000 -0.089911
v 0.077936 1.040000 -0.097729
v 0.103611 1.110000 -0.049897
v 0.112621 1.040000 -0.054235
v 0.000000 1.110000 0.000000
v 0.000000 1.040000 0.000000
v -0.080000 1.035000 0.090000
v 0.080000 1.035000 0.090000
v 0.080000 1.055000 0.090000
v -0.080000 1.055000 0.090000
v -0.080000 1.035000 0.210000
v 0.080000 1.035000 0.210000
v 0.080000 1.055000 0.210000
v -0.080000 1.055000 0.210000
v -0.105000 0.880000 -0.120000
v 0.105000 0.880000 -0.120000
v 0.105000 1.000000 -0.120000
v -0.105000 1.000000 -0.120000
v -0.105000 0.880000 -0.090000
v 0.105000 0.880000 -0.090000
v 0.105000 1.000000 -0.090000
v -0.105000 1.000000 -0.090000
vn 0.000000 0.000000 1.000000
vn 0.000000 0.000000 -1.000000
vn 1.000000 0.000000 0.000000
vn -1.000000 0.000000 0.000000
vn 0.000000 1.000000 0.000000
vn 0.000000 -1.000000 0.000000
vn 0.000000 0.000000 1.000000
vn 0.000000 0.000000 -1.000000
vn 1.000000 0.000000 0.000000
vn -1.000000 0.000000 0.000000
vn 0.000000 1.000000 0.000000
vn 0.000000 -1.000000 0.000000
vn 0.000000 0.000000 1.000000
vn 0.000000 0.000000 -1.000000
vn 1.000000 0.000000 0.000000
vn -1.000000 0.000000 0.000000
vn 0.000000 1.000000 0.000000
vn 0.000000 -1.000000 0.000000
vn 0.000000 0.000000 1.000000
vn 0.000000 0.000000 -1.000000
vn 1.000000 0.000000 0.000000
vn -1.000000 0.000000 0.000000
vn 0.000000 1.000000 0.000000
vn 0.000000 -1.000000 0.000000
vn 0.000000 0.000000 1.000000
vn 0.000000 0.000000 -1.000000
vn 1.000000 0.000000 0.000000
vn -1.000000 0.000000 0.000000
vn 0.000000 1.000000 0.000000
vn 0.000000 -1.000000 0.000000
vn 0.000000 0.000000 1.000000
vn 0.000000 0.000000 -1.000000
vn 1.000000 0.000000 0.000000
vn -1.000000 0.000000 0.000000
vn 0.000000 1.000000 0.000000
vn 0.000000 -1.000000 0.000000
vn 0.000000 0.000000 1.000000
vn 0.000000 0.000000 -1.000000
vn 1.000000 0.000000 0.000000
vn -1.000000 0.000000 0.000000
vn 0.000000 1.000000 0.000000
vn 0.000000 -1.000000 0.000000
vn 0.000000 0.000000 1.000000
vn 0.000000 0.000000 -1.000000
vn 1.000000 0.000000 0.000000
vn -1.000000 0.000000 0.000000
vn 0.000000 1.000000 0.000000
vn 0.000000 -1.000000 0.000000
vn 0.000000 0.000000 1.000000
vn 0.000000 0.000000 -1.000000
vn 1.000000 0.000000 0.000000
vn -1.000000 0.000000 0.000000
vn 0.000000 1.000000 0.000000
vn 0.000000 -1.000000 0.000000
vn 0.000000 0.000000 1.000000
vn 0.000000 0.000000 -1.000000
vn 1.000000 0.000000 0.000000
vn -1.000000 0.000000 0.000000
vn 0.000000 1.000000 0.000000
vn 0.000000 -1.000000 0.000000
vn 0.000000 0.000000 1.000000
vn 0.000000 0.000000 -1.000000
vn 1.000000 0.000000 0.000000
vn -1.000000 0.000000 0.000000
vn 0.000000 1.000000 0.000000
vn 0.000000 -1.000000 0.000000
vn 0.000000 0.000000 1.000000
vn 0.000000 0.000000 -1.000000
vn 1.000000 0.000000 0.000000
vn -1.000000 0.000000 0.000000
vn 0.000000 1.000000 0.000000
vn 0.000000 -1.000000 0.000000
vn 0.000000 0.000000 1.000000
vn 0.000000 0.000000 -1.000000
vn 1.000000 0.000000 0.000000
vn -1.000000 0.000000 0.000000
vn 0.000000 1.000000 0.000000
vn 0.000000 -1.000000 0.000000
vn 0.000000 0.000000 1.000000
vn 0.000000 0.000000 -1.000000
vn 1.000000 0.000000 0.000000
vn -1.000000 0.000000 0.000000
vn 0.000000 1.000000 0.000000
vn 0.000000 -1.000000 0.000000
vn 0.000000 0.000000 1.000000
vn 0.000000 0.000000 -1.000000
vn 1.000000 0.000000 0.000000
vn -1.000000 0.000000 0.000000
vn 0.000000 1.000000 0.000000
vn 0.000000 -1.000000 0.000000
vn 0.000000 0.000000 1.000000
vn 0.000000 0.000000 -1.000000
vn 1.000000 0.000000 0.000000
vn -1.000000 0.000000 0.000000
vn 0.000000 1.000000 0.000000
vn 0.000000 -1.000000 0.000000
vn 0.974928 0.000000 0.222521
vn 0.781831 0.000000 0.623490
vn 0.433884 0.000000 0.900969
vn 0.000000 0.000000 1.000000
vn -0.433884 0.000000 0.900969
vn -0.781831 0.000000 0.623490
vn -0.974928 0.000000 0.222521
vn -0.974928 0.000000 -0.222521
vn -0.781831 0.000000 -0.623490
vn -0.433884 0.000000 -0.900969
vn -0.000000 0.000000 -1.000000
vn 0.433884 0.000000 -0.900969
vn 0.781831 0.000000 -0.623490
vn 0.974928 0.000000 -0.222521
vn 0.000000 1.000000 0.000000
vn 0.000000 -1.000000 0.000000
vn 0.000000 1.000000 0.000000
vn 0.000000 -1.000000 0.000000
vn 0.000000 1.000000 0.000000
vn 0.000000 -1.000000 0.000000
vn 0.000000 1.000000 0.000000
vn 0.000000 -1.000000 0.000000
vn 0.000000 1.000000 0.000000
vn 0.000000 -1.000000 0.000000
vn 0.000000 1.000000 0.000000
vn 0.000000 -1.000000 0.000000
vn 0.000000 1.000000 0.000000
vn 0.000000 -1.000000 0.000000
vn 0.000000 1.000000 0.000000
vn 0.000000 -1.000000 0.000000
vn 0.000000 1.000000 0.000000
vn 0.000000 -1.000000 0.000000
vn 0.000000 1.000000 0.000000
vn 0.000000 -1.000000 0.000000
vn 0.000000 1.000000 0.000000
vn 0.000000 -1.000000 0.000000
vn 0.000000 1.000000 0.000000
vn 0.000000 -1.000000 0.000000
vn 0.000000 1.000000 0.000000
vn 0.000000 -1.000000 0.000000
vn 0.000000 1.000000 0.000000
vn 0.000000 -1.000000 0.000000
vn 0.000000 0.000000 1.000000
vn 0.000000 0.000000 -1.000000
vn 1.000000 0.000000 0.000000
vn -1.000000 0.000000 0.000000
vn 0.000000 1.000000 0.000000
vn 0.000000 -1.000000 0.000000
vn 0.000000 0.000000 1.000000
vn 0.000000 0.000000 -1.000000
vn 1.000000 0.000000 0.000000
vn -1.000000 0.000000 0.000000
vn 0.000000 1.000000 0.000000
vn 0.000000 -1.000000 0.000000
usemtl shoes
f 5//1 6//1 7//1 8//1
f 2//2 1//2 4//2 3//2
f 6//3 2//3 3//3 7//3
f 1//4 5//4 8//4 4//4
f 4//5 8//5 7//5 3//5
f 1//6 2//6 6//6 5//6
f 13//7 14//7 15//7 16//7
f 10//8 9//8 12//8 11//8
f 14//9 10//9 11//9 15//9
f 9//10 13//10 16//10 12//10
f 12//11 16//11 15//11 11//11
f 9//12 10//12 14//12 13//12
usemtl skin
f 21//13 22//13 23//13 24//13
f 18//14 17//14 20//14 19//14
f 22//15 18//15 19//15 23//15
f 17//16 21//16 24//16 20//16
f 20//17 24//17 23//17 19//17
f 17//18 18//18 22//18 21//18
f 29//19 30//19 31//19 32//19
f 26//20 25//20 28//20 27//20
f 30//21 26//21 27//21 31//21
f 25//22 29//22 32//22 28//22
f 28//23 32//23 31//23 27//23
f 25//24 26//24 30//24 29//24
usemtl shorts
f 37//25 38//25 39//25 40//25
f 34//26 33//26 36//26 35//26
f 38//27 34//27 35//27 39//27
f 33//28 37//28 40//28 36//28
f 36//29 40//29 39//29 35//29
f 33//30 34//30 38//30 37//30
usemtl shirt
f 45//31 46//31 47//31 48//31
f 42//32 41//32 44//32 43//32
f 46//33 42//33 43//33 47//33
f 41//34 45//34 48//34 44//34
f 44//35 48//35 47//35 43//35
f 41//36 42//36 46//36 45//36
usemtl stripe
f 53//37 54//37 55//37 56//37
f 50//38 49//38 52//38 51//38
f 54//39 50//39 51//39 55//39
f 49//40 53//40 56//40 52//40
f 52//41 56//41 55//41 51//41
f 49//42 50//42 54//42 53//42
usemtl shirt
f 61//43 62//43 63//43 64//43
f 58//44 57//44 60//44 59//44
f 62//45 58//45 59//45 63//45
f 57//46 61//46 64//46 60//46
f 60//47 64//47 63//47 59//47
f 57//48 58//48 62//48 61//48
usemtl stripe
f 69//49 70//49 71//49 72//49
f 66//50 65//50 68//50 67//50
f 70//51 66//51 67//51 71//51
f 65//52 69//52 72//52 68//52
f 68//53 72//53 71//53 67//53
f 65//54 66//54 70//54 69//54
usemtl shirt
f 77//55 78//55 79//55 80//55
f 74//56 73//56 76//56 75//56
f 78//57 74//57 75//57 79//57
f 73//58 77//58 80//58 76//58
f 76//59 80//59 79//59 75//59
f 73//60 74//60 78//60 77//60
usemtl skin
f 85//61 86//61 87//61 88//61
f 82//62 81//62 84//62 83//62
f 86//63 82//63 83//63 87//63
f 81//64 85//64 88//64 84//64
f 84//65 88//65 87//65 83//65
f 81//66 82//66 86//66 85//66
usemtl shirt
f 93//67 94//67 95//67 96//67
f 90//68 89//68 92//68 91//68
f 94//69 90//69 91//69 95//69
f 89//70 93//70 96//70 92//70
f 92//71 96//71 95//71 91//71
f 89//72 90//72 94//72 93//72
usemtl skin
f 101//73 102//73 103//73 104//73
f 98//74 97//74 100//74 99//74
f 102//75 98//75 99//75 103//75
f 97//76 101//76 104//76 100//76
f 100//77 104//77 103//77 99//77
f 97//78 98//78 102//78 101//78
f 109//79 110//79 111//79 112//79
f 106//80 105//80 108//80 107//80
f 110//81 106//81 107//81 111//81
f 105//82 109//82 112//82 108//82
f 108//83 112//83 111//83 107//83
f 105//84 106//84 110//84 109//84
usemtl eyes
f 117//85 118//85 119//85 120//85
f 114//86 113//86 116//86 115//86
f 118//87 114//87 115//87 119//87
f 113//88 117//88 120//88 116//88
f 116//89 120//89 119//89 115//89
f 113//90 114//90 118//90 117//90
f 125//91 126//91 127//91 128//91
f 122//92 121//92 124//92 123//92
f 126//93 122//93 123//93 127//93
f 121//94 125//94 128//94 124//94
f 124//95 128//95 127//95 123//95
f 121//96 122//96 126//96 125//96
usemtl cap
f 129//97 131//97 132//97 130//97
f 131//98 133//98 134//98 132//98
f 133//99 135//99 136//99 134//99
f 135//100 137//100 138//100 136//100
f 137//101 139//101 140//101 138//101
f 139//102 141//102 142//102 140//102
f 141//103 143//103 144//103 142//103
f 143//104 145//104 146//104 144//104
f 145//105 147//105 148//105 146//105
f 147//106 149//106 150//106 148//106
f 149//107 151//107 152//107 150//107
f 151//108 153//108 154//108 152//108
f 153//109 155//109 156//109 154//109
f 155//110 129//110 130//110 156//110
f 157//111 131//111 129//111
f 158//112 130//112 132//112
f 157//113 133//113 131//113
f 158//114 132//114 134//114
f 157//115 135//115 133//115
f 158//116 134//116 136//116
f 157//117 137//117 135//117
f 158//118 136//118 138//118
f 157//119 139//119 137//119
f 158//120 138//120 140//120
f 157//121 141//121 139//121
f 158//122 140//122 142//122
f 157//123 143//123 141//123
f 158//124 142//124 144//124
f 157//125 145//125 143//125
f 158//126 144//126 146//126
f 157//127 147//127 145//127
f 158//128 146//128 148//128
f 157//129 149//129 147//129
f 158//130 148//130 150//130
f 157//131 151//131 149//131
f 158//132 150//132 152//132
f 157//133 153//133 151//133
f 158//134 152//134 154//134
f 157//135 155//135 153//135
f 158//136 154//136 156//136
f 157//137 129//137 155//137
f 158//138 156//138 130//138
f 163//139 164//139 165//139 166//139
f 160//140 159//140 162//140 161//140
f 164//141 160//141 161//141 165//141
f 159//142 163//142 166//142 162//142
f 162//143 166//143 165//143 161//143
f 159//144 160//144 164//144 163//144
usemtl hair
f 171//145 172//145 173//145 174//145
f 168//146 167//146 170//146 169//146
f 172//147 168//147 169//147 173//147
f 167//148 171//148 174//148 170//148
f 170//149 174//149 173//149 169//149
f 167//150 168//150 172//150 171//150
