# bench — generated by Tools/make_street_models.py (do not hand-edit)
mtllib bench.mtl
o bench
v -0.700000 0.400000 -0.155000
v 0.700000 0.400000 -0.155000
v 0.700000 0.440000 -0.155000
v -0.700000 0.440000 -0.155000
v -0.700000 0.400000 -0.065000
v 0.700000 0.400000 -0.065000
v 0.700000 0.440000 -0.065000
v -0.700000 0.440000 -0.065000
v -0.700000 0.400000 -0.045000
v 0.700000 0.400000 -0.045000
v 0.700000 0.440000 -0.045000
v -0.700000 0.440000 -0.045000
v -0.700000 0.400000 0.045000
v 0.700000 0.400000 0.045000
v 0.700000 0.440000 0.045000
v -0.700000 0.440000 0.045000
v -0.700000 0.400000 0.065000
v 0.700000 0.400000 0.065000
v 0.700000 0.440000 0.065000
v -0.700000 0.440000 0.065000
v -0.700000 0.400000 0.155000
v 0.700000 0.400000 0.155000
v 0.700000 0.440000 0.155000
v -0.700000 0.440000 0.155000
v -0.700000 0.555000 -0.175000
v 0.700000 0.555000 -0.175000
v 0.700000 0.645000 -0.175000
v -0.700000 0.645000 -0.175000
v -0.700000 0.555000 -0.135000
v 0.700000 0.555000 -0.135000
v 0.700000 0.645000 -0.135000
v -0.700000 0.645000 -0.135000
v -0.700000 0.675000 -0.175000
v 0.700000 0.675000 -0.175000
v 0.700000 0.765000 -0.175000
v -0.700000 0.765000 -0.175000
v -0.700000 0.675000 -0.135000
v 0.700000 0.675000 -0.135000
v 0.700000 0.765000 -0.135000
v -0.700000 0.765000 -0.135000
v -0.625000 0.000000 -0.145000
v -0.575000 0.000000 -0.145000
v -0.575000 0.420000 -0.145000
v -0.625000 0.420000 -0.145000
v -0.625000 0.000000 -0.095000
v -0.575000 0.000000 -0.095000
v -0.575000 0.420000 -0.095000
v -0.625000 0.420000 -0.095000
v -0.625000 0.000000 0.095000
v -0.575000 0.000000 0.095000
v -0.575000 0.420000 0.095000
v -0.625000 0.420000 0.095000
v -0.625000 0.000000 0.145000
v -0.575000 0.000000 0.145000
v -0.575000 0.420000 0.145000
v -0.625000 0.420000 0.145000
v -0.625000 0.075000 -0.145000
v -0.575000 0.075000 -0.145000
v -0.575000 0.125000 -0.145000
v -0.625000 0.125000 -0.145000
v -0.625000 0.075000 0.145000
v -0.575000 0.075000 0.145000
v -0.575000 0.125000 0.145000
v -0.625000 0.125000 0.145000
v 0.575000 0.000000 -0.145000
v 0.625000 0.000000 -0.145000
v 0.625000 0.420000 -0.145000
v 0.575000 0.420000 -0.145000
v 0.575000 0.000000 -0.095000
v 0.625000 0.000000 -0.095000
v 0.625000 0.420000 -0.095000
v 0.575000 0.420000 -0.095000
v 0.575000 0.000000 0.095000
v 0.625000 0.000000 0.095000
v 0.625000 0.420000 0.095000
v 0.575000 0.420000 0.095000
v 0.575000 0.000000 0.145000
v 0.625000 0.000000 0.145000
v 0.625000 0.420000 0.145000
v 0.575000 0.420000 0.145000
v 0.575000 0.075000 -0.145000
v 0.625000 0.075000 -0.145000
v 0.625000 0.125000 -0.145000
v 0.575000 0.125000 -0.145000
v 0.575000 0.075000 0.145000
v 0.625000 0.075000 0.145000
v 0.625000 0.125000 0.145000
v 0.575000 0.125000 0.145000
vn 0.000000 0.000000 1.000000
vn 0.000000 0.000000 -1.000000
vn 1.000000 0.000000 0.000000
vn -1.000000 0.000000 0.000000
vn 0.000000 1.000000 0.000000
vn 0.000000 -1.000000 0.000000
vn 0.000000 0.000000 1.000000
vn 0.000000 0.000000 -1.000000
vn 1.000000 0.000000 0.000000
vn -1.000000 0.000000 0.000000
vn 0.000000 1.000000 0.000000
vn 0.000000 -1.000000 0.000000
vn 0.000000 0.000000 1.000000
vn 0.000000 0.000000 -1.000000
vn 1.000000 0.000000 0.000000
vn -1.000000 0.000000 0.000000
vn 0.000000 1.000000 0.000000
vn 0.000000 -1.000000 0.000000
vn 0.000000 0.000000 1.000000
vn 0.000000 0.000000 -1.000000
vn 1.000000 0.000000 0.000000
vn -1.000000 0.000000 0.000000
vn 0.000000 1.000000 0.000000
vn 0.000000 -1.000000 0.000000
vn 0.000000 0.000000 1.000000
vn 0.000000 0.000000 -1.000000
vn 1.000000 0.000000 0.000000
vn -1.000000 0.000000 0.000000
vn 0.000000 1.000000 0.000000
vn 0.000000 -1.000000 0.000000
vn 0.000000 0.000000 1.000000
vn 0.000000 0.000000 -1.000000
vn 1.000000 0.000000 0.000000
vn -1.000000 0.000000 0.000000
vn 0.000000 1.000000 0.000000
vn 0.000000 -1.000000 0.000000
vn 0.000000 0.000000 1.000000
vn 0.000000 0.000000 -1.000000
vn 1.000000 0.000000 0.000000
vn -1.000000 0.000000 0.000000
vn 0.000000 1.000000 0.000000
vn 0.000000 -1.000000 0.000000
vn 0.000000 0.000000 1.000000
vn 0.000000 0.000000 -1.000000
vn 1.000000 0.000000 0.000000
vn -1.000000 0.000000 0.000000
vn 0.000000 1.000000 0.000000
vn 0.000000 -1.000000 0.000000
vn 0.000000 0.000000 1.000000
vn 0.000000 0.000000 -1.000000
vn 1.000000 0.000000 0.000000
vn -1.000000 0.000000 0.000000
vn 0.000000 1.000000 0.000000
vn 0.000000 -1.000000 0.000000
vn 0.000000 0.000000 1.000000
vn 0.000000 0.000000 -1.000000
vn 1.000000 0.000000 0.000000
vn -1.000000 0.000000 0.000000
vn 0.000000 1.000000 0.000000
vn 0.000000 -1.000000 0.000000
vn 0.000000 0.000000 1.000000
vn 0.000000 0.000000 -1.000000
vn 1.000000 0.000000 0.000000
vn -1.000000 0.000000 0.000000
vn 0.000000 1.000000 0.000000
vn 0.000000 -1.000000 0.000000
usemtl wood
f 5//1 6//1 7//1 8//1
f 2//2 1//2 4//2 3//2
f 6//3 2//3 3//3 7//3
f 1//4 5//4 8//4 4//4
f 4//5 8//5 7//5 3//5
f 1//6 2//6 6//6 5//6
f 13//7 14//7 15//7 16//7
f 10//8 9//8 12//8 11//8
f 14//9 10//9 11//9 15//9
f 9//10 13//10 16//10 12//10
f 12//11 16//11 15//11 11//11
f 9//12 10//12 14//12 13//12
f 21//13 22//13 23//13 24//13
f 18//14 17//14 20//14 19//14
f 22//15 18//15 19//15 23//15
f 17//16 21//16 24//16 20//16
f 20//17 24//17 23//17 19//17
f 17//18 18//18 22//18 21//18
f 29//19 30//19 31//19 32//19
f 26//20 25//20 28//20 27//20
f 30//21 26//21 27//21 31//21
f 25//22 29//22 32//22 28//22
f 28//23 32//23 31//23 27//23
f 25//24 26//24 30//24 29//24
f 37//25 38//25 39//25 40//25
f 34//26 33//26 36//26 35//26
f 38//27 34//27 35//27 39//27
f 33//28 37//28 40//28 36//28
f 36//29 40//29 39//29 35//29
f 33//30 34//30 38//30 37//30
usemtl iron
f 45//31 46//31 47//31 48//31
f 42//32 41//32 44//32 43//32
f 46//33 42//33 43//33 47//33
f 41//34 45//34 48//34 44//34
f 44//35 48//35 47//35 43//35
f 41//36 42//36 46//36 45//36
f 53//37 54//37 55//37 56//37
f 50//38 49//38 52//38 51//38
f 54//39 50//39 51//39 55//39
f 49//40 53//40 56//40 52//40
f 52//41 56//41 55//41 51//41
f 49//42 50//42 54//42 53//42
f 61//43 62//43 63//43 64//43
f 58//44 57//44 60//44 59//44
f 62//45 58//45 59//45 63//45
f 57//46 61//46 64//46 60//46
f 60//47 64//47 63//47 59//47
f 57//48 58//48 62//48 61//48
f 69//49 70//49 71//49 72//49
f 66//50 65//50 68//50 67//50
f 70//51 66//51 67//51 71//51
f 65//52 69//52 72//52 68//52
f 68//53 72//53 71//53 67//53
f 65//54 66//54 70//54 69//54
f 77//55 78//55 79//55 80//55
f 74//56 73//56 76//56 75//56
f 78//57 74//57 75//57 79//57
f 73//58 77//58 80//58 76//58
f 76//59 80//59 79//59 75//59
f 73//60 74//60 78//60 77//60
f 85//61 86//61 87//61 88//61
f 82//62 81//62 84//62 83//62
f 86//63 82//63 83//63 87//63
f 81//64 85//64 88//64 84//64
f 84//65 88//65 87//65 83//65
f 81//66 82//66 86//66 85//66
