# brick_stack — generated by Tools/make_street_models.py (do not hand-edit)
mtllib brick_stack.mtl
o brick_stack
v -0.305000 0.000000 -0.050000
v -0.105000 0.000000 -0.050000
v -0.105000 0.060000 -0.050000
v -0.305000 0.060000 -0.050000
v -0.305000 0.000000 0.050000
v -0.105000 0.000000 0.050000
v -0.105000 0.060000 0.050000
v -0.305000 0.060000 0.050000
v -0.100000 0.000000 -0.050000
v 0.100000 0.000000 -0.050000
v 0.100000 0.060000 -0.050000
v -0.100000 0.060000 -0.050000
v -0.100000 0.000000 0.050000
v 0.100000 0.000000 0.050000
v 0.100000 0.060000 0.050000
v -0.100000 0.060000 0.050000
v 0.105000 0.000000 -0.050000
v 0.305000 0.000000 -0.050000
v 0.305000 0.060000 -0.050000
v 0.105000 0.060000 -0.050000
v 0.105000 0.000000 0.050000
v 0.305000 0.000000 0.050000
v 0.305000 0.060000 0.050000
v 0.105000 0.060000 0.050000
v -0.202500 0.064000 -0.050000
v -0.002500 0.064000 -0.050000
v -0.002500 0.124000 -0.050000
v -0.202500 0.124000 -0.050000
v -0.202500 0.064000 0.050000
v -0.002500 0.064000 0.050000
v -0.002500 0.124000 0.050000
v -0.202500 0.124000 0.050000
v 0.002500 0.064000 -0.050000
v 0.202500 0.064000 -0.050000
v 0.202500 0.124000 -0.050000
v 0.002500 0.124000 -0.050000
v 0.002500 0.064000 0.050000
v 0.202500 0.064000 0.050000
v 0.202500 0.124000 0.050000
v 0.002500 0.124000 0.050000
v -0.100000 0.128000 -0.050000
v 0.100000 0.128000 -0.050000
v 0.100000 0.188000 -0.050000
v -0.100000 0.188000 -0.050000
v -0.100000 0.128000 0.050000
v 0.100000 0.128000 0.050000
v 0.100000 0.188000 0.050000
v -0.100000 0.188000 0.050000
vn 0.000000 0.000000 1.000000
vn 0.000000 0.000000 -1.000000
vn 1.000000 0.000000 0.000000
vn -1.000000 0.000000 0.000000
vn 0.000000 1.000000 0.000000
vn 0.000000 -1.000000 0.000000
vn 0.000000 0.000000 1.000000
vn 0.000000 0.000000 -1.000000
vn 1.000000 0.000000 0.000000
vn -1.000000 0.000000 0.000000
vn 0.000000 1.000000 0.000000
vn 0.000000 -1.000000 0.000000
vn 0.000000 0.000000 1.000000
vn 0.000000 0.000000 -1.000000
vn 1.000000 0.000000 0.000000
vn -1.000000 0.000000 0.000000
vn 0.000000 1.000000 0.000000
vn 0.000000 -1.000000 0.000000
vn 0.000000 0.000000 1.000000
vn 0.000000 0.000000 -1.000000
vn 1.000000 0.000000 0.000000
vn -1.000000 0.000000 0.000000
vn 0.000000 1.000000 0.000000
vn 0.000000 -1.000000 0.000000
vn 0.000000 0.000000 1.000000
vn 0.000000 0.000000 -1.000000
vn 1.000000 0.000000 0.000000
vn -1.000000 0.000000 0.000000
vn 0.000000 1.000000 0.000000
vn 0.000000 -1.000000 0.000000
vn 0.000000 0.000000 1.000000
vn 0.000000 0.000000 -1.000000
vn 1.000000 0.000000 0.000000
vn -1.000000 0.000000 0.000000
vn 0.000000 1.000000 0.000000
vn 0.000000 -1.000000 0.000000
usemtl brick_a
f 5//1 6//1 7//1 8//1
f 2//2 1//2 4//2 3//2
f 6//3 2//3 3//3 7//3
f 1//4 5//4 8//4 4//4
f 4//5 8//5 7//5 3//5
f 1//6 2//6 6//6 5//6
f 13//7 14//7 15//7 16//7
f 10//8 9//8 12//8 11//8
f 14//9 10//9 11//9 15//9
f 9//10 13//10 16//10 12//10
f 12//11 16//11 15//11 11//11
f 9//12 10//12 14//12 13//12
f 21//13 22//13 23//13 24//13
f 18//14 17//14 20//14 19//14
f 22//15 18//15 19//15 23//15
f 17//16 21//16 24//16 20//16
f 20//17 24//17 23//17 19//17
f 17//18 18//18 22//18 21//18
usemtl brick_b
f 29//19 30//19 31//19 32//19
f 26//20 25//20 28//20 27//20
f 30//21 26//21 27//21 31//21
f 25//22 29//22 32//22 28//22
f 28//23 32//23 31//23 27//23
f 25//24 26//24 30//24 29//24
f 37//25 38//25 39//25 40//25
f 34//26 33//26 36//26 35//26
f 38//27 34//27 35//27 39//27
f 33//28 37//28 40//28 36//28
f 36//29 40//29 39//29 35//29
f 33//30 34//30 38//30 37//30
usemtl brick_a
f 45//31 46//31 47//31 48//31
f 42//32 41//32 44//32 43//32
f 46//33 42//33 43//33 47//33
f 41//34 45//34 48//34 44//34
f 44//35 48//35 47//35 43//35
f 41//36 42//36 46//36 45//36
