# cone — generated by Tools/make_street_models.py (do not hand-edit)
mtllib cone.mtl
o cone
v -0.100000 0.000000 -0.100000
v 0.100000 0.000000 -0.100000
v 0.100000 0.030000 -0.100000
v -0.100000 0.030000 -0.100000
v -0.100000 0.000000 0.100000
v 0.100000 0.000000 0.100000
v 0.100000 0.030000 0.100000
v -0.100000 0.030000 0.100000
v 0.020000 0.250000 0.000000
v 0.075000 0.030000 0.000000
v 0.018019 0.250000 0.008678
v 0.067573 0.030000 0.032541
v 0.012470 0.250000 0.015637
v 0.046762 0.030000 0.058637
v 0.004450 0.250000 0.019499
v 0.016689 0.030000 0.073120
v -0.004450 0.250000 0.019499
v -0.016689 0.030000 0.073120
v -0.012470 0.250000 0.015637
v -0.046762 0.030000 0.058637
v -0.018019 0.250000 0.008678
v -0.067573 0.030000 0.032541
v -0.020000 0.250000 0.000000
v -0.075000 0.030000 0.000000
v -0.018019 0.250000 -0.008678
v -0.067573 0.030000 -0.032541
v -0.012470 0.250000 -0.015637
v -0.046762 0.030000 -0.058637
v -0.004450 0.250000 -0.019499
v -0.016689 0.030000 -0.073120
v 0.004450 0.250000 -0.019499
v 0.016689 0.030000 -0.073120
v 0.012470 0.250000 -0.015637
v 0.046762 0.030000 -0.058637
v 0.018019 0.250000 -0.008678
v 0.067573 0.030000 -0.032541
v 0.000000 0.250000 0.000000
v 0.000000 0.030000 0.000000
v 0.048000 0.155000 0.000000
v 0.058000 0.105000 0.000000
v 0.043247 0.155000 0.020826
v 0.052256 0.105000 0.025165
v 0.029928 0.155000 0.037528
v 0.036162 0.105000 0.045346
v 0.010681 0.155000 0.046797
v 0.012906 0.105000 0.056546
v -0.010681 0.155000 0.046797
v -0.012906 0.105000 0.056546
v -0.029928 0.155000 0.037528
v -0.036162 0.105000 0.045346
v -0.043247 0.155000 0.020826
v -0.052256 0.105000 0.025165
v -0.048000 0.155000 0.000000
v -0.058000 0.105000 0.000000
v -0.043247 0.155000 -0.020826
v -0.052256 0.105000 -0.025165
v -0.029928 0.155000 -0.037528
v -0.036162 0.105000 -0.045346
v -0.010681 0.155000 -0.046797
v -0.012906 0.105000 -0.056546
v 0.010681 0.155000 -0.046797
v 0.012906 0.105000 -0.056546
v 0.029928 0.155000 -0.037528
v 0.036162 0.105000 -0.045346
v 0.043247 0.155000 -0.020826
v 0.052256 0.105000 -0.025165
v 0.000000 0.155000 0.000000
v 0.000000 0.105000 0.000000
vn 0.000000 0.000000 1.000000
vn 0.000000 0.000000 -1.000000
vn 1.000000 0.000000 0.000000
vn -1.000000 0.000000 0.000000
vn 0.000000 1.000000 0.000000
vn 0.000000 -1.000000 0.000000
vn 0.974928 0.000000 0.222521
vn 0.781831 0.000000 0.623490
vn 0.433884 0.000000 0.900969
vn 0.000000 0.000000 1.000000
vn -0.433884 0.000000 0.900969
vn -0.781831 0.000000 0.623490
vn -0.974928 0.000000 0.222521
vn -0.974928 0.000000 -0.222521
vn -0.781831 0.000000 -0.623490
vn -0.433884 0.000000 -0.900969
vn -0.000000 0.000000 -1.000000
vn 0.433884 0.000000 -0.900969
vn 0.781831 0.000000 -0.623490
vn 0.974928 0.000000 -0.222521
vn 0.000000 1.000000 0.000000
vn 0.000000 -1.000000 0.000000
vn 0.000000 1.000000 0.000000
vn 0.000000 -1.000000 0.000000
vn 0.000000 1.000000 0.000000
vn 0.000000 -1.000000 0.000000
vn 0.000000 1.000000 0.000000
vn 0.000000 -1.000000 0.000000
vn 0.000000 1.000000 0.000000
vn 0.000000 -1.000000 0.000000
vn 0.000000 1.000000 0.000000
vn 0.000000 -1.000000 0.000000
vn 0.000000 1.000000 0.000000
vn 0.000000 -1.000000 0.000000
vn 0.000000 1.000000 0.000000
vn 0.000000 -1.000000 0.000000
vn 0.000000 1.000000 0.000000
vn 0.000000 -1.000000 0.000000
vn 0.000000 1.000000 0.000000
vn 0.000000 -1.000000 0.000000
vn 0.000000 1.000000 0.000000
vn 0.000000 -1.000000 0.000000
vn 0.000000 1.000000 0.000000
vn 0.000000 -1.000000 0.000000
vn 0.000000 1.000000 0.000000
vn 0.000000 -1.000000 0.000000
vn 0.000000 1.000000 0.000000
vn 0.000000 -1.000000 0.000000
vn 0.974928 0.000000 0.222521
vn 0.781831 0.000000 0.623490
vn 0.433884 0.000000 0.900969
vn 0.000000 0.000000 1.000000
vn -0.433884 0.000000 0.900969
vn -0.781831 0.000000 0.623490
vn -0.974928 0.000000 0.222521
vn -0.974928 0.000000 -0.222521
vn -0.781831 0.000000 -0.623490
vn -0.433884 0.000000 -0.900969
vn -0.000000 0.000000 -1.000000
vn 0.433884 0.000000 -0.900969
vn 0.781831 0.000000 -0.623490
vn 0.974928 0.000000 -0.222521
vn 0.000000 1.000000 0.000000
vn 0.000000 -1.000000 0.000000
vn 0.000000 1.000000 0.000000
vn 0.000000 -1.000000 0.000000
vn 0.000000 1.000000 0.000000
vn 0.000000 -1.000000 0.000000
vn 0.000000 1.000000 0.000000
vn 0.000000 -1.000000 0.000000
vn 0.000000 1.000000 0.000000
vn 0.000000 -1.000000 0.000000
vn 0.000000 1.000000 0.000000
vn 0.000000 -1.000000 0.000000
vn 0.000000 1.000000 0.000000
vn 0.000000 -1.000000 0.000000
vn 0.000000 1.000000 0.000000
vn 0.000000 -1.000000 0.000000
vn 0.000000 1.000000 0.000000
vn 0.000000 -1.000000 0.000000
vn 0.000000 1.000000 0.000000
vn 0.000000 -1.000000 0.000000
vn 0.000000 1.000000 0.000000
vn 0.000000 -1.000000 0.000000
vn 0.000000 1.000000 0.000000
vn 0.000000 -1.000000 0.000000
vn 0.000000 1.000000 0.000000
vn 0.000000 -1.000000 0.000000
vn 0.000000 1.000000 0.000000
vn 0.000000 -1.000000 0.000000
usemtl base
f 5//1 6//1 7//1 8//1
f 2//2 1//2 4//2 3//2
f 6//3 2//3 3//3 7//3
f 1//4 5//4 8//4 4//4
f 4//5 8//5 7//5 3//5
f 1//6 2//6 6//6 5//6
usemtl body
f 9//7 11//7 12//7 10//7
f 11//8 13//8 14//8 12//8
f 13//9 15//9 16//9 14//9
f 15//10 17//10 18//10 16//10
f 17//11 19//11 20//11 18//11
f 19//12 21//12 22//12 20//12
f 21//13 23//13 24//13 22//13
f 23//14 25//14 26//14 24//14
f 25//15 27//15 28//15 26//15
f 27//16 29//16 30//16 28//16
f 29//17 31//17 32//17 30//17
f 31//18 33//18 34//18 32//18
f 33//19 35//19 36//19 34//19
f 35//20 9//20 10//20 36//20
f 37//21 11//21 9//21
f 38//22 10//22 12//22
f 37//23 13//23 11//23
f 38//24 12//24 14//24
f 37//25 15//25 13//25
f 38//26 14//26 16//26
f 37//27 17//27 15//27
f 38//28 16//28 18//28
f 37//29 19//29 17//29
f 38//30 18//30 20//30
f 37//31 21//31 19//31
f 38//32 20//32 22//32
f 37//33 23//33 21//33
f 38//34 22//34 24//34
f 37//35 25//35 23//35
f 38//36 24//36 26//36
f 37//37 27//37 25//37
f 38//38 26//38 28//38
f 37//39 29//39 27//39
f 38//40 28//40 30//40
f 37//41 31//41 29//41
f 38//42 30//42 32//42
f 37//43 33//43 31//43
f 38//44 32//44 34//44
f 37//45 35//45 33//45
f 38//46 34//46 36//46
f 37//47 9//47 35//47
f 38//48 36//48 10//48
usemtl band
f 39//49 41//49 42//49 40//49
f 41//50 43//50 44//50 42//50
f 43//51 45//51 46//51 44//51
f 45//52 47//52 48//52 46//52
f 47//53 49//53 50//53 48//53
f 49//54 51//54 52//54 50//54
f 51//55 53//55 54//55 52//55
f 53//56 55//56 56//56 54//56
f 55//57 57//57 58//57 56//57
f 57//58 59//58 60//58 58//58
f 59//59 61//59 62//59 60//59
f 61//60 63//60 64//60 62//60
f 63//61 65//61 66//61 64//61
f 65//62 39//62 40//62 66//62
f 67//63 41//63 39//63
f 68//64 40//64 42//64
f 67//65 43//65 41//65
f 68//66 42//66 44//66
f 67//67 45//67 43//67
f 68//68 44//68 46//68
f 67//69 47//69 45//69
f 68//70 46//70 48//70
f 67//71 49//71 47//71
f 68//72 48//72 50//72
f 67//73 51//73 49//73
f 68//74 50//74 52//74
f 67//75 53//75 51//75
f 68//76 52//76 54//76
f 67//77 55//77 53//77
f 68//78 54//78 56//78
f 67//79 57//79 55//79
f 68//80 56//80 58//80
f 67//81 59//81 57//81
f 68//82 58//82 60//82
f 67//83 61//83 59//83
f 68//84 60//84 62//84
f 67//85 63//85 61//85
f 68//86 62//86 64//86
f 67//87 65//87 63//87
f 68//88 64//88 66//88
f 67//89 39//89 65//89
f 68//90 66//90 40//90
