# goal_small — generated by Tools/make_street_models.py (do not hand-edit)
mtllib goal_small.mtl
o goal_small
v -0.765000 1.000000 0.000000
v -0.765000 0.000000 0.000000
v -0.769689 1.000000 0.017500
v -0.769689 0.000000 0.017500
v -0.782500 1.000000 0.030311
v -0.782500 0.000000 0.030311
v -0.800000 1.000000 0.035000
v -0.800000 0.000000 0.035000
v -0.817500 1.000000 0.030311
v -0.817500 0.000000 0.030311
v -0.830311 1.000000 0.017500
v -0.830311 0.000000 0.017500
v -0.835000 1.000000 0.000000
v -0.835000 0.000000 0.000000
v -0.830311 1.000000 -0.017500
v -0.830311 0.000000 -0.017500
v -0.817500 1.000000 -0.030311
v -0.817500 0.000000 -0.030311
v -0.800000 1.000000 -0.035000
v -0.800000 0.000000 -0.035000
v -0.782500 1.000000 -0.030311
v -0.782500 0.000000 -0.030311
v -0.769689 1.000000 -0.017500
v -0.769689 0.000000 -0.017500
v -0.800000 1.000000 0.000000
v -0.800000 0.000000 0.000000
v 0.835000 1.000000 0.000000
v 0.835000 0.000000 0.000000
v 0.830311 1.000000 0.017500
v 0.830311 0.000000 0.017500
v 0.817500 1.000000 0.030311
v 0.817500 0.000000 0.030311
v 0.800000 1.000000 0.035000
v 0.800000 0.000000 0.035000
v 0.782500 1.000000 0.030311
v 0.782500 0.000000 0.030311
v 0.769689 1.000000 0.017500
v 0.769689 0.000000 0.017500
v 0.765000 1.000000 0.000000
v 0.765000 0.000000 0.000000
v 0.769689 1.000000 -0.017500
v 0.769689 0.000000 -0.017500
v 0.782500 1.000000 -0.030311
v 0.782500 0.000000 -0.030311
v 0.800000 1.000000 -0.035000
v 0.800000 0.000000 -0.035000
v 0.817500 1.000000 -0.030311
v 0.817500 0.000000 -0.030311
v 0.830311 1.000000 -0.017500
v 0.830311 0.000000 -0.017500
v 0.800000 1.000000 0.000000
v 0.800000 0.000000 0.000000
v 0.835000 0.965000 0.000000
v -0.835000 0.965000 0.000000
v 0.835000 0.969689 0.017500
v -0.835000 0.969689 0.017500
v 0.835000 0.982500 0.030311
v -0.835000 0.982500 0.030311
v 0.835000 1.000000 0.035000
v -0.835000 1.000000 0.035000
v 0.835000 1.017500 0.030311
v -0.835000 1.017500 0.030311
v 0.835000 1.030311 0.017500
v -0.835000 1.030311 0.017500
v 0.835000 1.035000 0.000000
v -0.835000 1.035000 0.000000
v 0.835000 1.030311 -0.017500
v -0.835000 1.030311 -0.017500
v 0.835000 1.017500 -0.030311
v -0.835000 1.017500 -0.030311
v 0.835000 1.000000 -0.035000
v -0.835000 1.000000 -0.035000
v 0.835000 0.982500 -0.030311
v -0.835000 0.982500 -0.030311
v 0.835000 0.969689 -0.017500
v -0.835000 0.969689 -0.017500
v 0.835000 1.000000 0.000000
v -0.835000 1.000000 0.000000
v -0.770000 0.035000 0.025000
v -0.770000 0.035000 -0.525000
v -0.774019 0.020000 0.025000
v -0.774019 0.020000 -0.525000
v -0.785000 0.009019 0.025000
v -0.785000 0.009019 -0.525000
v -0.800000 0.005000 0.025000
v -0.800000 0.005000 -0.525000
v -0.815000 0.009019 0.025000
v -0.815000 0.009019 -0.525000
v -0.825981 0.020000 0.025000
v -0.825981 0.020000 -0.525000
v -0.830000 0.035000 0.025000
v -0.830000 0.035000 -0.525000
v -0.825981 0.050000 0.025000
v -0.825981 0.050000 -0.525000
v -0.815000 0.060981 0.025000
v -0.815000 0.060981 -0.525000
v -0.800000 0.065000 0.025000
v -0.800000 0.065000 -0.525000
v -0.785000 0.060981 0.025000
v -0.785000 0.060981 -0.525000
v -0.774019 0.050000 0.025000
v -0.774019 0.050000 -0.525000
v -0.800000 0.035000 0.025000
v -0.800000 0.035000 -0.525000
v 0.830000 0.035000 0.025000
v 0.830000 0.035000 -0.525000
v 0.825981 0.020000 0.025000
v 0.825981 0.020000 -0.525000
v 0.815000 0.009019 0.025000
v 0.815000 0.009019 -0.525000
v 0.800000 0.005000 0.025000
v 0.800000 0.005000 -0.525000
v 0.785000 0.009019 0.025000
v 0.785000 0.009019 -0.525000
v 0.774019 0.020000 0.025000
v 0.774019 0.020000 -0.525000
v 0.770000 0.035000 0.025000
v 0.770000 0.035000 -0.525000
v 0.774019 0.050000 0.025000
v 0.774019 0.050000 -0.525000
v 0.785000 0.060981 0.025000
v 0.785000 0.060981 -0.525000
v 0.800000 0.065000 0.025000
v 0.800000 0.065000 -0.525000
v 0.815000 0.060981 0.025000
v 0.815000 0.060981 -0.525000
v 0.825981 0.050000 0.025000
v 0.825981 0.050000 -0.525000
v 0.800000 0.035000 0.025000
v 0.800000 0.035000 -0.525000
vn 0.965926 0.000000 0.258819
vn 0.707107 0.000000 0.707107
vn 0.258819 0.000000 0.965926
vn -0.258819 0.000000 0.965926
vn -0.707107 0.000000 0.707107
vn -0.965926 0.000000 0.258819
vn -0.965926 0.000000 -0.258819
vn -0.707107 0.000000 -0.707107
vn -0.258819 0.000000 -0.965926
vn 0.258819 0.000000 -0.965926
vn 0.707107 0.000000 -0.707107
vn 0.965926 0.000000 -0.258819
vn 0.000000 1.000000 0.000000
vn 0.000000 -1.000000 0.000000
vn 0.000000 1.000000 0.000000
vn 0.000000 -1.000000 0.000000
vn 0.000000 1.000000 0.000000
vn 0.000000 -1.000000 0.000000
vn 0.000000 1.000000 0.000000
vn 0.000000 -1.000000 0.000000
vn 0.000000 1.000000 0.000000
vn 0.000000 -1.000000 0.000000
vn 0.000000 1.000000 0.000000
vn 0.000000 -1.000000 0.000000
vn 0.000000 1.000000 0.000000
vn 0.000000 -1.000000 0.000000
vn 0.000000 1.000000 0.000000
vn 0.000000 -1.000000 0.000000
vn 0.000000 1.000000 0.000000
vn 0.000000 -1.000000 0.000000
vn 0.000000 1.000000 0.000000
vn 0.000000 -1.000000 0.000000
vn 0.000000 1.000000 0.000000
vn 0.000000 -1.000000 0.000000
vn 0.000000 1.000000 0.000000
vn 0.000000 -1.000000 0.000000
vn 0.965926 0.000000 0.258819
vn 0.707107 0.000000 0.707107
vn 0.258819 0.000000 0.965926
vn -0.258819 0.000000 0.965926
vn -0.707107 0.000000 0.707107
vn -0.965926 0.000000 0.258819
vn -0.965926 0.000000 -0.258819
vn -0.707107 0.000000 -0.707107
vn -0.258819 0.000000 -0.965926
vn 0.258819 0.000000 -0.965926
vn 0.707107 0.000000 -0.707107
vn 0.965926 0.000000 -0.258819
vn 0.000000 1.000000 0.000000
vn 0.000000 -1.000000 0.000000
vn 0.000000 1.000000 0.000000
vn 0.000000 -1.000000 0.000000
vn 0.000000 1.000000 0.000000
vn 0.000000 -1.000000 0.000000
vn 0.000000 1.000000 0.000000
vn 0.000000 -1.000000 0.000000
vn 0.000000 1.000000 0.000000
vn 0.000000 -1.000000 0.000000
vn 0.000000 1.000000 0.000000
vn 0.000000 -1.000000 0.000000
vn 0.000000 1.000000 0.000000
vn 0.000000 -1.000000 0.000000
vn 0.000000 1.000000 0.000000
vn 0.000000 -1.000000 0.000000
vn 0.000000 1.000000 0.000000
vn 0.000000 -1.000000 0.000000
vn 0.000000 1.000000 0.000000
vn 0.000000 -1.000000 0.000000
vn 0.000000 1.000000 0.000000
vn 0.000000 -1.000000 0.000000
vn 0.000000 1.000000 0.000000
vn 0.000000 -1.000000 0.000000
vn 0.000000 -0.965926 0.258819
vn 0.000000 -0.707107 0.707107
vn 0.000000 -0.258819 0.965926
vn 0.000000 0.258819 0.965926
vn 0.000000 0.707107 0.707107
vn 0.000000 0.965926 0.258819
vn 0.000000 0.965926 -0.258819
vn 0.000000 0.707107 -0.707107
vn 0.000000 0.258819 -0.965926
vn 0.000000 -0.258819 -0.965926
vn 0.000000 -0.707107 -0.707107
vn 0.000000 -0.965926 -0.258819
vn 1.000000 0.000000 0.000000
vn -1.000000 0.000000 0.000000
vn 1.000000 0.000000 0.000000
vn -1.000000 0.000000 0.000000
vn 1.000000 0.000000 0.000000
vn -1.000000 0.000000 0.000000
vn 1.000000 0.000000 0.000000
vn -1.000000 0.000000 0.000000
vn 1.000000 0.000000 0.000000
vn -1.000000 0.000000 0.000000
vn 1.000000 0.000000 0.000000
vn -1.000000 0.000000 0.000000
vn 1.000000 0.000000 0.000000
vn -1.000000 0.000000 0.000000
vn 1.000000 0.000000 0.000000
vn -1.000000 0.000000 0.000000
vn 1.000000 0.000000 0.000000
vn -1.000000 0.000000 0.000000
vn 1.000000 0.000000 0.000000
vn -1.000000 0.000000 0.000000
vn 1.000000 0.000000 0.000000
vn -1.000000 0.000000 0.000000
vn 1.000000 0.000000 0.000000
vn -1.000000 0.000000 0.000000
vn 0.965926 -0.258819 0.000000
vn 0.707107 -0.707107 0.000000
vn 0.258819 -0.965926 0.000000
vn -0.258819 -0.965926 0.000000
vn -0.707107 -0.707107 0.000000
vn -0.965926 -0.258819 0.000000
vn -0.965926 0.258819 0.000000
vn -0.707107 0.707107 0.000000
vn -0.258819 0.965926 0.000000
vn 0.258819 0.965926 0.000000
vn 0.707107 0.707107 0.000000
vn 0.965926 0.258819 0.000000
vn 0.000000 0.000000 1.000000
vn 0.000000 0.000000 -1.000000
vn 0.000000 0.000000 1.000000
vn 0.000000 0.000000 -1.000000
vn 0.000000 0.000000 1.000000
vn 0.000000 0.000000 -1.000000
vn 0.000000 0.000000 1.000000
vn 0.000000 0.000000 -1.000000
vn 0.000000 0.000000 1.000000
vn 0.000000 0.000000 -1.000000
vn 0.000000 0.000000 1.000000
vn 0.000000 0.000000 -1.000000
vn 0.000000 0.000000 1.000000
vn 0.000000 0.000000 -1.000000
vn 0.000000 0.000000 1.000000
vn 0.000000 0.000000 -1.000000
vn 0.000000 0.000000 1.000000
vn 0.000000 0.000000 -1.000000
vn 0.000000 0.000000 1.000000
vn 0.000000 0.000000 -1.000000
vn 0.000000 0.000000 1.000000
vn 0.000000 0.000000 -1.000000
vn 0.000000 0.000000 1.000000
vn 0.000000 0.000000 -1.000000
vn 0.965926 -0.258819 0.000000
vn 0.707107 -0.707107 0.000000
vn 0.258819 -0.965926 0.000000
vn -0.258819 -0.965926 0.000000
vn -0.707107 -0.707107 0.000000
vn -0.965926 -0.258819 0.000000
vn -0.965926 0.258819 0.000000
vn -0.707107 0.707107 0.000000
vn -0.258819 0.965926 0.000000
vn 0.258819 0.965926 0.000000
vn 0.707107 0.707107 0.000000
vn 0.965926 0.258819 0.000000
vn 0.000000 0.000000 1.000000
vn 0.000000 0.000000 -1.000000
vn 0.000000 0.000000 1.000000
vn 0.000000 0.000000 -1.000000
vn 0.000000 0.000000 1.000000
vn 0.000000 0.000000 -1.000000
vn 0.000000 0.000000 1.000000
vn 0.000000 0.000000 -1.000000
vn 0.000000 0.000000 1.000000
vn 0.000000 0.000000 -1.000000
vn 0.000000 0.000000 1.000000
vn 0.000000 0.000000 -1.000000
vn 0.000000 0.000000 1.000000
vn 0.000000 0.000000 -1.000000
vn 0.000000 0.000000 1.000000
vn 0.000000 0.000000 -1.000000
vn 0.000000 0.000000 1.000000
vn 0.000000 0.000000 -1.000000
vn 0.000000 0.000000 1.000000
vn 0.000000 0.000000 -1.000000
vn 0.000000 0.000000 1.000000
vn 0.000000 0.000000 -1.000000
vn 0.000000 0.000000 1.000000
vn 0.000000 0.000000 -1.000000
usemtl paint
f 1//1 3//1 4//1 2//1
f 3//2 5//2 6//2 4//2
f 5//3 7//3 8//3 6//3
f 7//4 9//4 10//4 8//4
f 9//5 11//5 12//5 10//5
f 11//6 13//6 14//6 12//6
f 13//7 15//7 16//7 14//7
f 15//8 17//8 18//8 16//8
f 17//9 19//9 20//9 18//9
f 19//10 21//10 22//10 20//10
f 21//11 23//11 24//11 22//11
f 23//12 1//12 2//12 24//12
f 25//13 3//13 1//13
f 26//14 2//14 4//14
f 25//15 5//15 3//15
f 26//16 4//16 6//16
f 25//17 7//17 5//17
f 26//18 6//18 8//18
f 25//19 9//19 7//19
f 26//20 8//20 10//20
f 25//21 11//21 9//21
f 26//22 10//22 12//22
f 25//23 13//23 11//23
f 26//24 12//24 14//24
f 25//25 15//25 13//25
f 26//26 14//26 16//26
f 25//27 17//27 15//27
f 26//28 16//28 18//28
f 25//29 19//29 17//29
f 26//30 18//30 20//30
f 25//31 21//31 19//31
f 26//32 20//32 22//32
f 25//33 23//33 21//33
f 26//34 22//34 24//34
f 25//35 1//35 23//35
f 26//36 24//36 2//36
f 27//37 29//37 30//37 28//37
f 29//38 31//38 32//38 30//38
f 31//39 33//39 34//39 32//39
f 33//40 35//40 36//40 34//40
f 35//41 37//41 38//41 36//41
f 37//42 39//42 40//42 38//42
f 39//43 41//43 42//43 40//43
f 41//44 43//44 44//44 42//44
f 43//45 45//45 46//45 44//45
f 45//46 47//46 48//46 46//46
f 47//47 49//47 50//47 48//47
f 49//48 27//48 28//48 50//48
f 51//49 29//49 27//49
f 52//50 28//50 30//50
f 51//51 31//51 29//51
f 52//52 30//52 32//52
f 51//53 33//53 31//53
f 52//54 32//54 34//54
f 51//55 35//55 33//55
f 52//56 34//56 36//56
f 51//57 37//57 35//57
f 52//58 36//58 38//58
f 51//59 39//59 37//59
f 52//60 38//60 40//60
f 51//61 41//61 39//61
f 52//62 40//62 42//62
f 51//63 43//63 41//63
f 52//64 42//64 44//64
f 51//65 45//65 43//65
f 52//66 44//66 46//66
f 51//67 47//67 45//67
f 52//68 46//68 48//68
f 51//69 49//69 47//69
f 52//70 48//70 50//70
f 51//71 27//71 49//71
f 52//72 50//72 28//72
f 53//73 55//73 56//73 54//73
f 55//74 57//74 58//74 56//74
f 57//75 59//75 60//75 58//75
f 59//76 61//76 62//76 60//76
f 61//77 63//77 64//77 62//77
f 63//78 65//78 66//78 64//78
f 65//79 67//79 68//79 66//79
f 67//80 69//80 70//80 68//80
f 69//81 71//81 72//81 70//81
f 71//82 73//82 74//82 72//82
f 73//83 75//83 76//83 74//83
f 75//84 53//84 54//84 76//84
f 77//85 55//85 53//85
f 78//86 54//86 56//86
f 77//87 57//87 55//87
f 78//88 56//88 58//88
f 77//89 59//89 57//89
f 78//90 58//90 60//90
f 77//91 61//91 59//91
f 78//92 60//92 62//92
f 77//93 63//93 61//93
f 78//94 62//94 64//94
f 77//95 65//95 63//95
f 78//96 64//96 66//96
f 77//97 67//97 65//97
f 78//98 66//98 68//98
f 77//99 69//99 67//99
f 78//100 68//100 70//100
f 77//101 71//101 69//101
f 78//102 70//102 72//102
f 77//103 73//103 71//103
f 78//104 72//104 74//104
f 77//105 75//105 73//105
f 78//106 74//106 76//106
f 77//107 53//107 75//107
f 78//108 76//108 54//108
f 79//109 81//109 82//109 80//109
f 81//110 83//110 84//110 82//110
f 83//111 85//111 86//111 84//111
f 85//112 87//112 88//112 86//112
f 87//113 89//113 90//113 88//113
f 89//114 91//114 92//114 90//114
f 91//115 93//115 94//115 92//115
f 93//116 95//116 96//116 94//116
f 95//117 97//117 98//117 96//117
f 97//118 99//118 100//118 98//118
f 99//119 101//119 102//119 100//119
f 101//120 79//120 80//120 102//120
f 103//121 81//121 79//121
f 104//122 80//122 82//122
f 103//123 83//123 81//123
f 104//124 82//124 84//124
f 103//125 85//125 83//125
f 104//126 84//126 86//126
f 103//127 87//127 85//127
f 104//128 86//128 88//128
f 103//129 89//129 87//129
f 104//130 88//130 90//130
f 103//131 91//131 89//131
f 104//132 90//132 92//132
f 103//133 93//133 91//133
f 104//134 92//134 94//134
f 103//135 95//135 93//135
f 104//136 94//136 96//136
f 103//137 97//137 95//137
f 104//138 96//138 98//138
f 103//139 99//139 97//139
f 104//140 98//140 100//140
f 103//141 101//141 99//141
f 104//142 100//142 102//142
f 103//143 79//143 101//143
f 104//144 102//144 80//144
f 105//145 107//145 108//145 106//145
f 107//146 109//146 110//146 108//146
f 109//147 111//147 112//147 110//147
f 111//148 113//148 114//148 112//148
f 113//149 115//149 116//149 114//149
f 115//150 117//150 118//150 116//150
f 117//151 119//151 120//151 118//151
f 119//152 121//152 122//152 120//152
f 121//153 123//153 124//153 122//153
f 123//154 125//154 126//154 124//154
f 125//155 127//155 128//155 126//155
f 127//156 105//156 106//156 128//156
f 129//157 107//157 105//157
f 130//158 106//158 108//158
f 129//159 109//159 107//159
f 130//160 108//160 110//160
f 129//161 111//161 109//161
f 130//162 110//162 112//162
f 129//163 113//163 111//163
f 130//164 112//164 114//164
f 129//165 115//165 113//165
f 130//166 114//166 116//166
f 129//167 117//167 115//167
f 130//168 116//168 118//168
f 129//169 119//169 117//169
f 130//170 118//170 120//170
f 129//171 121//171 119//171
f 130//172 120//172 122//172
f 129//173 123//173 121//173
f 130//174 122//174 124//174
f 129//175 125//175 123//175
f 130//176 124//176 126//176
f 129//177 127//177 125//177
f 130//178 126//178 128//178
f 129//179 105//179 127//179
f 130//180 128//180 106//180
