# tire_stack — generated by Tools/make_street_models.py (do not hand-edit)
mtllib tire_stack.mtl
o tire_stack
v 0.195000 0.055000 0.000000
v 0.184496 0.087328 0.000000
v 0.156996 0.107308 0.000000
v 0.123004 0.107308 0.000000
v 0.095504 0.087328 0.000000
v 0.085000 0.055000 0.000000
v 0.095504 0.022672 0.000000
v 0.123004 0.002692 0.000000
v 0.156996 0.002692 0.000000
v 0.184496 0.022672 0.000000
v 0.180157 0.055000 0.074623
v 0.170452 0.087328 0.070604
v 0.145045 0.107308 0.060080
v 0.113641 0.107308 0.047072
v 0.088234 0.087328 0.036548
v 0.078530 0.055000 0.032528
v 0.088234 0.022672 0.036548
v 0.113641 0.002692 0.047072
v 0.145045 0.002692 0.060080
v 0.170452 0.022672 0.070604
v 0.137886 0.055000 0.137886
v 0.130458 0.087328 0.130458
v 0.111013 0.107308 0.111013
v 0.086977 0.107308 0.086977
v 0.067532 0.087328 0.067532
v 0.060104 0.055000 0.060104
v 0.067532 0.022672 0.067532
v 0.086977 0.002692 0.086977
v 0.111013 0.002692 0.111013
v 0.130458 0.022672 0.130458
v 0.074623 0.055000 0.180157
v 0.070604 0.087328 0.170452
v 0.060080 0.107308 0.145045
v 0.047072 0.107308 0.113641
v 0.036548 0.087328 0.088234
v 0.032528 0.055000 0.078530
v 0.036548 0.022672 0.088234
v 0.047072 0.002692 0.113641
v 0.060080 0.002692 0.145045
v 0.070604 0.022672 0.170452
v 0.000000 0.055000 0.195000
v 0.000000 0.087328 0.184496
v 0.000000 0.107308 0.156996
v 0.000000 0.107308 0.123004
v 0.000000 0.087328 0.095504
v 0.000000 0.055000 0.085000
v 0.000000 0.022672 0.095504
v 0.000000 0.002692 0.123004
v 0.000000 0.002692 0.156996
v 0.000000 0.022672 0.184496
v -0.074623 0.055000 0.180157
v -0.070604 0.087328 0.170452
v -0.060080 0.107308 0.145045
v -0.047072 0.107308 0.113641
v -0.036548 0.087328 0.088234
v -0.032528 0.055000 0.078530
v -0.036548 0.022672 0.088234
v -0.047072 0.002692 0.113641
v -0.060080 0.002692 0.145045
v -0.070604 0.022672 0.170452
v -0.137886 0.055000 0.137886
v -0.130458 0.087328 0.130458
v -0.111013 0.107308 0.111013
v -0.086977 0.107308 0.086977
v -0.067532 0.087328 0.067532
v -0.060104 0.055000 0.060104
v -0.067532 0.022672 0.067532
v -0.086977 0.002692 0.086977
v -0.111013 0.002692 0.111013
v -0.130458 0.022672 0.130458
v -0.180157 0.055000 0.074623
v -0.170452 0.087328 0.070604
v -0.145045 0.107308 0.060080
v -0.113641 0.107308 0.047072
v -0.088234 0.087328 0.036548
v -0.078530 0.055000 0.032528
v -0.088234 0.022672 0.036548
v -0.113641 0.002692 0.047072
v -0.145045 0.002692 0.060080
v -0.170452 0.022672 0.070604
v -0.195000 0.055000 0.000000
v -0.184496 0.087328 0.000000
v -0.156996 0.107308 0.000000
v -0.123004 0.107308 0.000000
v -0.095504 0.087328 0.000000
v -0.085000 0.055000 0.000000
v -0.095504 0.022672 0.000000
v -0.123004 0.002692 0.000000
v -0.156996 0.002692 0.000000
v -0.184496 0.022672 0.000000
v -0.180157 0.055000 -0.074623
v -0.170452 0.087328 -0.070604
v -0.145045 0.107308 -0.060080
v -0.113641 0.107308 -0.047072
v -0.088234 0.087328 -0.036548
v -0.078530 0.055000 -0.032528
v -0.088234 0.022672 -0.036548
v -0.113641 0.002692 -0.047072
v -0.145045 0.002692 -0.060080
v -0.170452 0.022672 -0.070604
v -0.137886 0.055000 -0.137886
v -0.130458 0.087328 -0.130458
v -0.111013 0.107308 -0.111013
v -0.086977 0.107308 -0.086977
v -0.067532 0.087328 -0.067532
v -0.060104 0.055000 -0.060104
v -0.067532 0.022672 -0.067532
v -0.086977 0.002692 -0.086977
v -0.111013 0.002692 -0.111013
v -0.130458 0.022672 -0.130458
v -0.074623 0.055000 -0.180157
v -0.070604 0.087328 -0.170452
v -0.060080 0.107308 -0.145045
v -0.047072 0.107308 -0.113641
v -0.036548 0.087328 -0.088234
v -0.032528 0.055000 -0.078530
v -0.036548 0.022672 -0.088234
v -0.047072 0.002692 -0.113641
v -0.060080 0.002692 -0.145045
v -0.070604 0.022672 -0.170452
v -0.000000 0.055000 -0.195000
v -0.000000 0.087328 -0.184496
v -0.000000 0.107308 -0.156996
v -0.000000 0.107308 -0.123004
v -0.000000 0.087328 -0.095504
v -0.000000 0.055000 -0.085000
v -0.000000 0.022672 -0.095504
v -0.000000 0.002692 -0.123004
v -0.000000 0.002692 -0.156996
v -0.000000 0.022672 -0.184496
v 0.074623 0.055000 -0.180157
v 0.070604 0.087328 -0.170452
v 0.060080 0.107308 -0.145045
v 0.047072 0.107308 -0.113641
v 0.036548 0.087328 -0.088234
v 0.032528 0.055000 -0.078530
v 0.036548 0.022672 -0.088234
v 0.047072 0.002692 -0.113641
v 0.060080 0.002692 -0.145045
v 0.070604 0.022672 -0.170452
v 0.137886 0.055000 -0.137886
v 0.130458 0.087328 -0.130458
v 0.111013 0.107308 -0.111013
v 0.086977 0.107308 -0.086977
v 0.067532 0.087328 -0.067532
v 0.060104 0.055000 -0.060104
v 0.067532 0.022672 -0.067532
v 0.086977 0.002692 -0.086977
v 0.111013 0.002692 -0.111013
v 0.130458 0.022672 -0.130458
v 0.180157 0.055000 -0.074623
v 0.170452 0.087328 -0.070604
v 0.145045 0.107308 -0.060080
v 0.113641 0.107308 -0.047072
v 0.088234 0.087328 -0.036548
v 0.078530 0.055000 -0.032528
v 0.088234 0.022672 -0.036548
v 0.113641 0.002692 -0.047072
v 0.145045 0.002692 -0.060080
v 0.170452 0.022672 -0.070604
v 0.195000 0.165000 0.000000
v 0.184496 0.197328 0.000000
v 0.156996 0.217308 0.000000
v 0.123004 0.217308 0.000000
v 0.095504 0.197328 0.000000
v 0.085000 0.165000 0.000000
v 0.095504 0.132672 0.000000
v 0.123004 0.112692 0.000000
v 0.156996 0.112692 0.000000
v 0.184496 0.132672 0.000000
v 0.180157 0.165000 0.074623
v 0.170452 0.197328 0.070604
v 0.145045 0.217308 0.060080
v 0.113641 0.217308 0.047072
v 0.088234 0.197328 0.036548
v 0.078530 0.165000 0.032528
v 0.088234 0.132672 0.036548
v 0.113641 0.112692 0.047072
v 0.145045 0.112692 0.060080
v 0.170452 0.132672 0.070604
v 0.137886 0.165000 0.137886
v 0.130458 0.197328 0.130458
v 0.111013 0.217308 0.111013
v 0.086977 0.217308 0.086977
v 0.067532 0.197328 0.067532
v 0.060104 0.165000 0.060104
v 0.067532 0.132672 0.067532
v 0.086977 0.112692 0.086977
v 0.111013 0.112692 0.111013
v 0.130458 0.132672 0.130458
v 0.074623 0.165000 0.180157
v 0.070604 0.197328 0.170452
v 0.060080 0.217308 0.145045
v 0.047072 0.217308 0.113641
v 0.036548 0.197328 0.088234
v 0.032528 0.165000 0.078530
v 0.036548 0.132672 0.088234
v 0.047072 0.112692 0.113641
v 0.060080 0.112692 0.145045
v 0.070604 0.132672 0.170452
v 0.000000 0.165000 0.195000
v 0.000000 0.197328 0.184496
v 0.000000 0.217308 0.156996
v 0.000000 0.217308 0.123004
v 0.000000 0.197328 0.095504
v 0.000000 0.165000 0.085000
v 0.000000 0.132672 0.095504
v 0.000000 0.112692 0.123004
v 0.000000 0.112692 0.156996
v 0.000000 0.132672 0.184496
v -0.074623 0.165000 0.180157
v -0.070604 0.197328 0.170452
v -0.060080 0.217308 0.145045
v -0.047072 0.217308 0.113641
v -0.036548 0.197328 0.088234
v -0.032528 0.165000 0.078530
v -0.036548 0.132672 0.088234
v -0.047072 0.112692 0.113641
v -0.060080 0.112692 0.145045
v -0.070604 0.132672 0.170452
v -0.137886 0.165000 0.137886
v -0.130458 0.197328 0.130458
v -0.111013 0.217308 0.111013
v -0.086977 0.217308 0.086977
v -0.067532 0.197328 0.067532
v -0.060104 0.165000 0.060104
v -0.067532 0.132672 0.067532
v -0.086977 0.112692 0.086977
v -0.111013 0.112692 0.111013
v -0.130458 0.132672 0.130458
v -0.180157 0.165000 0.074623
v -0.170452 0.197328 0.070604
v -0.145045 0.217308 0.060080
v -0.113641 0.217308 0.047072
v -0.088234 0.197328 0.036548
v -0.078530 0.165000 0.032528
v -0.088234 0.132672 0.036548
v -0.113641 0.112692 0.047072
v -0.145045 0.112692 0.060080
v -0.170452 0.132672 0.070604
v -0.195000 0.165000 0.000000
v -0.184496 0.197328 0.000000
v -0.156996 0.217308 0.000000
v -0.123004 0.217308 0.000000
v -0.095504 0.197328 0.000000
v -0.085000 0.165000 0.000000
v -0.095504 0.132672 0.000000
v -0.123004 0.112692 0.000000
v -0.156996 0.112692 0.000000
v -0.184496 0.132672 0.000000
v -0.180157 0.165000 -0.074623
v -0.170452 0.197328 -0.070604
v -0.145045 0.217308 -0.060080
v -0.113641 0.217308 -0.047072
v -0.088234 0.197328 -0.036548
v -0.078530 0.165000 -0.032528
v -0.088234 0.132672 -0.036548
v -0.113641 0.112692 -0.047072
v -0.145045 0.112692 -0.060080
v -0.170452 0.132672 -0.070604
v -0.137886 0.165000 -0.137886
v -0.130458 0.197328 -0.130458
v -0.111013 0.217308 -0.111013
v -0.086977 0.217308 -0.086977
v -0.067532 0.197328 -0.067532
v -0.060104 0.165000 -0.060104
v -0.067532 0.132672 -0.067532
v -0.086977 0.112692 -0.086977
v -0.111013 0.112692 -0.111013
v -0.130458 0.132672 -0.130458
v -0.074623 0.165000 -0.180157
v -0.070604 0.197328 -0.170452
v -0.060080 0.217308 -0.145045
v -0.047072 0.217308 -0.113641
v -0.036548 0.197328 -0.088234
v -0.032528 0.165000 -0.078530
v -0.036548 0.132672 -0.088234
v -0.047072 0.112692 -0.113641
v -0.060080 0.112692 -0.145045
v -0.070604 0.132672 -0.170452
v -0.000000 0.165000 -0.195000
v -0.000000 0.197328 -0.184496
v -0.000000 0.217308 -0.156996
v -0.000000 0.217308 -0.123004
v -0.000000 0.197328 -0.095504
v -0.000000 0.165000 -0.085000
v -0.000000 0.132672 -0.095504
v -0.000000 0.112692 -0.123004
v -0.000000 0.112692 -0.156996
v -0.000000 0.132672 -0.184496
v 0.074623 0.165000 -0.180157
v 0.070604 0.197328 -0.170452
v 0.060080 0.217308 -0.145045
v 0.047072 0.217308 -0.113641
v 0.036548 0.197328 -0.088234
v 0.032528 0.165000 -0.078530
v 0.036548 0.132672 -0.088234
v 0.047072 0.112692 -0.113641
v 0.060080 0.112692 -0.145045
v 0.070604 0.132672 -0.170452
v 0.137886 0.165000 -0.137886
v 0.130458 0.197328 -0.130458
v 0.111013 0.217308 -0.111013
v 0.086977 0.217308 -0.086977
v 0.067532 0.197328 -0.067532
v 0.060104 0.165000 -0.060104
v 0.067532 0.132672 -0.067532
v 0.086977 0.112692 -0.086977
v 0.111013 0.112692 -0.111013
v 0.130458 0.132672 -0.130458
v 0.180157 0.165000 -0.074623
v 0.170452 0.197328 -0.070604
v 0.145045 0.217308 -0.060080
v 0.113641 0.217308 -0.047072
v 0.088234 0.197328 -0.036548
v 0.078530 0.165000 -0.032528
v 0.088234 0.132672 -0.036548
v 0.113641 0.112692 -0.047072
v 0.145045 0.112692 -0.060080
v 0.170452 0.132672 -0.070604
v 0.195000 0.275000 0.000000
v 0.184496 0.307328 0.000000
v 0.156996 0.327308 0.000000
v 0.123004 0.327308 0.000000
v 0.095504 0.307328 0.000000
v 0.085000 0.275000 0.000000
v 0.095504 0.242672 0.000000
v 0.123004 0.222692 0.000000
v 0.156996 0.222692 0.000000
v 0.184496 0.242672 0.000000
v 0.180157 0.275000 0.074623
v 0.170452 0.307328 0.070604
v 0.145045 0.327308 0.060080
v 0.113641 0.327308 0.047072
v 0.088234 0.307328 0.036548
v 0.078530 0.275000 0.032528
v 0.088234 0.242672 0.036548
v 0.113641 0.222692 0.047072
v 0.145045 0.222692 0.060080
v 0.170452 0.242672 0.070604
v 0.137886 0.275000 0.137886
v 0.130458 0.307328 0.130458
v 0.111013 0.327308 0.111013
v 0.086977 0.327308 0.086977
v 0.067532 0.307328 0.067532
v 0.060104 0.275000 0.060104
v 0.067532 0.242672 0.067532
v 0.086977 0.222692 0.086977
v 0.111013 0.222692 0.111013
v 0.130458 0.242672 0.130458
v 0.074623 0.275000 0.180157
v 0.070604 0.307328 0.170452
v 0.060080 0.327308 0.145045
v 0.047072 0.327308 0.113641
v 0.036548 0.307328 0.088234
v 0.032528 0.275000 0.078530
v 0.036548 0.242672 0.088234
v 0.047072 0.222692 0.113641
v 0.060080 0.222692 0.145045
v 0.070604 0.242672 0.170452
v 0.000000 0.275000 0.195000
v 0.000000 0.307328 0.184496
v 0.000000 0.327308 0.156996
v 0.000000 0.327308 0.123004
v 0.000000 0.307328 0.095504
v 0.000000 0.275000 0.085000
v 0.000000 0.242672 0.095504
v 0.000000 0.222692 0.123004
v 0.000000 0.222692 0.156996
v 0.000000 0.242672 0.184496
v -0.074623 0.275000 0.180157
v -0.070604 0.307328 0.170452
v -0.060080 0.327308 0.145045
v -0.047072 0.327308 0.113641
v -0.036548 0.307328 0.088234
v -0.032528 0.275000 0.078530
v -0.036548 0.242672 0.088234
v -0.047072 0.222692 0.113641
v -0.060080 0.222692 0.145045
v -0.070604 0.242672 0.170452
v -0.137886 0.275000 0.137886
v -0.130458 0.307328 0.130458
v -0.111013 0.327308 0.111013
v -0.086977 0.327308 0.086977
v -0.067532 0.307328 0.067532
v -0.060104 0.275000 0.060104
v -0.067532 0.242672 0.067532
v -0.086977 0.222692 0.086977
v -0.111013 0.222692 0.111013
v -0.130458 0.242672 0.130458
v -0.180157 0.275000 0.074623
v -0.170452 0.307328 0.070604
v -0.145045 0.327308 0.060080
v -0.113641 0.327308 0.047072
v -0.088234 0.307328 0.036548
v -0.078530 0.275000 0.032528
v -0.088234 0.242672 0.036548
v -0.113641 0.222692 0.047072
v -0.145045 0.222692 0.060080
v -0.170452 0.242672 0.070604
v -0.195000 0.275000 0.000000
v -0.184496 0.307328 0.000000
v -0.156996 0.327308 0.000000
v -0.123004 0.327308 0.000000
v -0.095504 0.307328 0.000000
v -0.085000 0.275000 0.000000
v -0.095504 0.242672 0.000000
v -0.123004 0.222692 0.000000
v -0.156996 0.222692 0.000000
v -0.184496 0.242672 0.000000
v -0.180157 0.275000 -0.074623
v -0.170452 0.307328 -0.070604
v -0.145045 0.327308 -0.060080
v -0.113641 0.327308 -0.047072
v -0.088234 0.307328 -0.036548
v -0.078530 0.275000 -0.032528
v -0.088234 0.242672 -0.036548
v -0.113641 0.222692 -0.047072
v -0.145045 0.222692 -0.060080
v -0.170452 0.242672 -0.070604
v -0.137886 0.275000 -0.137886
v -0.130458 0.307328 -0.130458
v -0.111013 0.327308 -0.111013
v -0.086977 0.327308 -0.086977
v -0.067532 0.307328 -0.067532
v -0.060104 0.275000 -0.060104
v -0.067532 0.242672 -0.067532
v -0.086977 0.222692 -0.086977
v -0.111013 0.222692 -0.111013
v -0.130458 0.242672 -0.130458
v -0.074623 0.275000 -0.180157
v -0.070604 0.307328 -0.170452
v -0.060080 0.327308 -0.145045
v -0.047072 0.327308 -0.113641
v -0.036548 0.307328 -0.088234
v -0.032528 0.275000 -0.078530
v -0.036548 0.242672 -0.088234
v -0.047072 0.222692 -0.113641
v -0.060080 0.222692 -0.145045
v -0.070604 0.242672 -0.170452
v -0.000000 0.275000 -0.195000
v -0.000000 0.307328 -0.184496
v -0.000000 0.327308 -0.156996
v -0.000000 0.327308 -0.123004
v -0.000000 0.307328 -0.095504
v -0.000000 0.275000 -0.085000
v -0.000000 0.242672 -0.095504
v -0.000000 0.222692 -0.123004
v -0.000000 0.222692 -0.156996
v -0.000000 0.242672 -0.184496
v 0.074623 0.275000 -0.180157
v 0.070604 0.307328 -0.170452
v 0.060080 0.327308 -0.145045
v 0.047072 0.327308 -0.113641
v 0.036548 0.307328 -0.088234
v 0.032528 0.275000 -0.078530
v 0.036548 0.242672 -0.088234
v 0.047072 0.222692 -0.113641
v 0.060080 0.222692 -0.145045
v 0.070604 0.242672 -0.170452
v 0.137886 0.275000 -0.137886
v 0.130458 0.307328 -0.130458
v 0.111013 0.327308 -0.111013
v 0.086977 0.327308 -0.086977
v 0.067532 0.307328 -0.067532
v 0.060104 0.275000 -0.060104
v 0.067532 0.242672 -0.067532
v 0.086977 0.222692 -0.086977
v 0.111013 0.222692 -0.111013
v 0.130458 0.242672 -0.130458
v 0.180157 0.275000 -0.074623
v 0.170452 0.307328 -0.070604
v 0.145045 0.327308 -0.060080
v 0.113641 0.327308 -0.047072
v 0.088234 0.307328 -0.036548
v 0.078530 0.275000 -0.032528
v 0.088234 0.242672 -0.036548
v 0.113641 0.222692 -0.047072
v 0.145045 0.222692 -0.060080
v 0.170452 0.242672 -0.070604
v 0.495000 0.185000 0.020000
v 0.484496 0.198662 0.049299
v 0.456996 0.207106 0.067407
v 0.423004 0.207106 0.067407
v 0.395504 0.198662 0.049299
v 0.385000 0.185000 0.020000
v 0.395504 0.171338 -0.009299
v 0.423004 0.162894 -0.027407
v 0.456996 0.162894 -0.027407
v 0.484496 0.171338 -0.009299
v 0.480157 0.117368 0.051537
v 0.470452 0.134674 0.079138
v 0.445045 0.152656 0.092798
v 0.413641 0.164445 0.087301
v 0.388234 0.165539 0.064745
v 0.378530 0.155520 0.033747
v 0.388234 0.138214 0.006146
v 0.413641 0.120232 -0.007514
v 0.445045 0.108443 -0.002016
v 0.470452 0.107349 0.020539
v 0.437886 0.060033 0.078273
v 0.430458 0.080427 0.104433
v 0.411013 0.106495 0.114323
v 0.386977 0.128278 0.104165
v 0.367532 0.137458 0.077839
v 0.360104 0.130527 0.045401
v 0.367532 0.110133 0.019241
v 0.386977 0.084066 0.009351
v 0.411013 0.062282 0.019509
v 0.430458 0.053102 0.045835
v 0.374623 0.021723 0.096137
v 0.370604 0.044180 0.121335
v 0.360080 0.075651 0.128706
v 0.347072 0.104113 0.115434
v 0.336548 0.118695 0.086589
v 0.332528 0.113828 0.053188
v 0.336548 0.091370 0.027990
v 0.347072 0.059900 0.020619
v 0.360080 0.031438 0.033892
v 0.370604 0.016856 0.062737
v 0.300000 0.008270 0.102411
v 0.300000 0.031452 0.127271
v 0.300000 0.064820 0.133757
v 0.300000 0.095627 0.119391
v 0.300000 0.112106 0.089661
v 0.300000 0.107964 0.055923
v 0.300000 0.084781 0.031062
v 0.300000 0.051414 0.024577
v 0.300000 0.020607 0.038942
v 0.300000 0.004127 0.068672
v 0.225377 0.021723 0.096137
v 0.229396 0.044180 0.121335
v 0.239920 0.075651 0.128706
v 0.252928 0.104113 0.115434
v 0.263452 0.118695 0.086589
v 0.267472 0.113828 0.053188
v 0.263452 0.091370 0.027990
v 0.252928 0.059900 0.020619
v 0.239920 0.031438 0.033892
v 0.229396 0.016856 0.062737
v 0.162114 0.060033 0.078273
v 0.169542 0.080427 0.104433
v 0.188987 0.106495 0.114323
v 0.213023 0.128278 0.104165
v 0.232468 0.137458 0.077839
v 0.239896 0.130527 0.045401
v 0.232468 0.110133 0.019241
v 0.213023 0.084066 0.009351
v 0.188987 0.062282 0.019509
v 0.169542 0.053102 0.045835
v 0.119843 0.117368 0.051537
v 0.129548 0.134674 0.079138
v 0.154955 0.152656 0.092798
v 0.186359 0.164445 0.087301
v 0.211766 0.165539 0.064745
v 0.221470 0.155520 0.033747
v 0.211766 0.138214 0.006146
v 0.186359 0.120232 -0.007514
v 0.154955 0.108443 -0.002016
v 0.129548 0.107349 0.020539
v 0.105000 0.185000 0.020000
v 0.115504 0.198662 0.049299
v 0.143004 0.207106 0.067407
v 0.176996 0.207106 0.067407
v 0.204496 0.198662 0.049299
v 0.215000 0.185000 0.020000
v 0.204496 0.171338 -0.009299
v 0.176996 0.162894 -0.027407
v 0.143004 0.162894 -0.027407
v 0.115504 0.171338 -0.009299
v 0.119843 0.252632 -0.011537
v 0.129548 0.262651 0.019461
v 0.154955 0.261557 0.042016
v 0.186359 0.249768 0.047514
v 0.211766 0.231786 0.033854
v 0.221470 0.214480 0.006253
v 0.211766 0.204461 -0.024745
v 0.186359 0.205555 -0.047301
v 0.154955 0.217344 -0.052798
v 0.129548 0.235326 -0.039138
v 0.162114 0.309967 -0.038273
v 0.169542 0.316898 -0.005835
v 0.188987 0.307718 0.020491
v 0.213023 0.285934 0.030649
v 0.232468 0.259867 0.020759
v 0.239896 0.239473 -0.005401
v 0.232468 0.232542 -0.037839
v 0.213023 0.241722 -0.064165
v 0.188987 0.263505 -0.074323
v 0.169542 0.289573 -0.064433
v 0.225377 0.348277 -0.056137
v 0.229396 0.353144 -0.022737
v 0.239920 0.338562 0.006108
v 0.252928 0.310100 0.019381
v 0.263452 0.278630 0.012010
v 0.267472 0.256172 -0.013188
v 0.263452 0.251305 -0.046589
v 0.252928 0.265887 -0.075434
v 0.239920 0.294349 -0.088706
v 0.229396 0.325820 -0.081335
v 0.300000 0.361730 -0.062411
v 0.300000 0.365873 -0.028672
v 0.300000 0.349393 0.001058
v 0.300000 0.318586 0.015423
v 0.300000 0.285219 0.008938
v 0.300000 0.262036 -0.015923
v 0.300000 0.257894 -0.049661
v 0.300000 0.274373 -0.079391
v 0.300000 0.305180 -0.093757
v 0.300000 0.338548 -0.087271
v 0.374623 0.348277 -0.056137
v 0.370604 0.353144 -0.022737
v 0.360080 0.338562 0.006108
v 0.347072 0.310100 0.019381
v 0.336548 0.278630 0.012010
v 0.332528 0.256172 -0.013188
v 0.336548 0.251305 -0.046589
v 0.347072 0.265887 -0.075434
v 0.360080 0.294349 -0.088706
v 0.370604 0.325820 -0.081335
v 0.437886 0.309967 -0.038273
v 0.430458 0.316898 -0.005835
v 0.411013 0.307718 0.020491
v 0.386977 0.285934 0.030649
v 0.367532 0.259867 0.020759
v 0.360104 0.239473 -0.005401
v 0.367532 0.232542 -0.037839
v 0.386977 0.241722 -0.064165
v 0.411013 0.263505 -0.074323
v 0.430458 0.289573 -0.064433
v 0.480157 0.252632 -0.011537
v 0.470452 0.262651 0.019461
v 0.445045 0.261557 0.042016
v 0.413641 0.249768 0.047514
v 0.388234 0.231786 0.033854
v 0.378530 0.214480 0.006253
v 0.388234 0.204461 -0.024745
v 0.413641 0.205555 -0.047301
v 0.445045 0.217344 -0.052798
v 0.470452 0.235326 -0.039138
vn 0.932782 0.309017 0.185542
vn 0.576491 0.809017 0.114671
vn 0.000000 1.000000 0.000000
vn -0.576491 0.809017 -0.114671
vn -0.932782 0.309017 -0.185542
vn -0.932782 -0.309017 -0.185542
vn -0.576491 -0.809017 -0.114671
vn -0.000000 -1.000000 -0.000000
vn 0.576491 -0.809017 0.114671
vn 0.932782 -0.309017 0.185542
vn 0.790775 0.309017 0.528379
vn 0.488726 0.809017 0.326556
vn 0.000000 1.000000 0.000000
vn -0.488726 0.809017 -0.326556
vn -0.790775 0.309017 -0.528379
vn -0.790775 -0.309017 -0.528379
vn -0.488726 -0.809017 -0.326556
vn -0.000000 -1.000000 -0.000000
vn 0.488726 -0.809017 0.326556
vn 0.790775 -0.309017 0.528379
vn 0.528379 0.309017 0.790775
vn 0.326556 0.809017 0.488726
vn 0.000000 1.000000 0.000000
vn -0.326556 0.809017 -0.488726
vn -0.528379 0.309017 -0.790775
vn -0.528379 -0.309017 -0.790775
vn -0.326556 -0.809017 -0.488726
vn -0.000000 -1.000000 -0.000000
vn 0.326556 -0.809017 0.488726
vn 0.528379 -0.309017 0.790775
vn 0.185542 0.309017 0.932782
vn 0.114671 0.809017 0.576491
vn 0.000000 1.000000 0.000000
vn -0.114671 0.809017 -0.576491
vn -0.185542 0.309017 -0.932782
vn -0.185542 -0.309017 -0.932782
vn -0.114671 -0.809017 -0.576491
vn -0.000000 -1.000000 -0.000000
vn 0.114671 -0.809017 0.576491
vn 0.185542 -0.309017 0.932782
vn -0.185542 0.309017 0.932782
vn -0.114671 0.809017 0.576491
vn -0.000000 1.000000 0.000000
vn 0.114671 0.809017 -0.576491
vn 0.185542 0.309017 -0.932782
vn 0.185542 -0.309017 -0.932782
vn 0.114671 -0.809017 -0.576491
vn 0.000000 -1.000000 -0.000000
vn -0.114671 -0.809017 0.576491
vn -0.185542 -0.309017 0.932782
vn -0.528379 0.309017 0.790775
vn -0.326556 0.809017 0.488726
vn -0.000000 1.000000 0.000000
vn 0.326556 0.809017 -0.488726
vn 0.528379 0.309017 -0.790775
vn 0.528379 -0.309017 -0.790775
vn 0.326556 -0.809017 -0.488726
vn 0.000000 -1.000000 -0.000000
vn -0.326556 -0.809017 0.488726
vn -0.528379 -0.309017 0.790775
vn -0.790775 0.309017 0.528379
vn -0.488726 0.809017 0.326556
vn -0.000000 1.000000 0.000000
vn 0.488726 0.809017 -0.326556
vn 0.790775 0.309017 -0.528379
vn 0.790775 -0.309017 -0.528379
vn 0.488726 -0.809017 -0.326556
vn 0.000000 -1.000000 -0.000000
vn -0.488726 -0.809017 0.326556
vn -0.790775 -0.309017 0.528379
vn -0.932782 0.309017 0.185542
vn -0.576491 0.809017 0.114671
vn -0.000000 1.000000 0.000000
vn 0.576491 0.809017 -0.114671
vn 0.932782 0.309017 -0.185542
vn 0.932782 -0.309017 -0.185542
vn 0.576491 -0.809017 -0.114671
vn 0.000000 -1.000000 -0.000000
vn -0.576491 -0.809017 0.114671
vn -0.932782 -0.309017 0.185542
vn -0.932782 0.309017 -0.185542
vn -0.576491 0.809017 -0.114671
vn -0.000000 1.000000 -0.000000
vn 0.576491 0.809017 0.114671
vn 0.932782 0.309017 0.185542
vn 0.932782 -0.309017 0.185542
vn 0.576491 -0.809017 0.114671
vn 0.000000 -1.000000 0.000000
vn -0.576491 -0.809017 -0.114671
vn -0.932782 -0.309017 -0.185542
vn -0.790775 0.309017 -0.528379
vn -0.488726 0.809017 -0.326556
vn -0.000000 1.000000 -0.000000
vn 0.488726 0.809017 0.326556
vn 0.790775 0.309017 0.528379
vn 0.790775 -0.309017 0.528379
vn 0.488726 -0.809017 0.326556
vn 0.000000 -1.000000 0.000000
vn -0.488726 -0.809017 -0.326556
vn -0.790775 -0.309017 -0.528379
vn -0.528379 0.309017 -0.790775
vn -0.326556 0.809017 -0.488726
vn -0.000000 1.000000 -0.000000
vn 0.326556 0.809017 0.488726
vn 0.528379 0.309017 0.790775
vn 0.528379 -0.309017 0.790775
vn 0.326556 -0.809017 0.488726
vn 0.000000 -1.000000 0.000000
vn -0.326556 -0.809017 -0.488726
vn -0.528379 -0.309017 -0.790775
vn -0.185542 0.309017 -0.932782
vn -0.114671 0.809017 -0.576491
vn -0.000000 1.000000 -0.000000
vn 0.114671 0.809017 0.576491
vn 0.185542 0.309017 0.932782
vn 0.185542 -0.309017 0.932782
vn 0.114671 -0.809017 0.576491
vn 0.000000 -1.000000 0.000000
vn -0.114671 -0.809017 -0.576491
vn -0.185542 -0.309017 -0.932782
vn 0.185542 0.309017 -0.932782
vn 0.114671 0.809017 -0.576491
vn 0.000000 1.000000 -0.000000
vn -0.114671 0.809017 0.576491
vn -0.185542 0.309017 0.932782
vn -0.185542 -0.309017 0.932782
vn -0.114671 -0.809017 0.576491
vn -0.000000 -1.000000 0.000000
vn 0.114671 -0.809017 -0.576491
vn 0.185542 -0.309017 -0.932782
vn 0.528379 0.309017 -0.790775
vn 0.326556 0.809017 -0.488726
vn 0.000000 1.000000 -0.000000
vn -0.326556 0.809017 0.488726
vn -0.528379 0.309017 0.790775
vn -0.528379 -0.309017 0.790775
vn -0.326556 -0.809017 0.488726
vn -0.000000 -1.000000 0.000000
vn 0.326556 -0.809017 -0.488726
vn 0.528379 -0.309017 -0.790775
vn 0.790775 0.309017 -0.528379
vn 0.488726 0.809017 -0.326556
vn 0.000000 1.000000 -0.000000
vn -0.488726 0.809017 0.326556
vn -0.790775 0.309017 0.528379
vn -0.790775 -0.309017 0.528379
vn -0.488726 -0.809017 0.326556
vn -0.000000 -1.000000 0.000000
vn 0.488726 -0.809017 -0.326556
vn 0.790775 -0.309017 -0.528379
vn 0.932782 0.309017 -0.185542
vn 0.576491 0.809017 -0.114671
vn 0.000000 1.000000 -0.000000
vn -0.576491 0.809017 0.114671
vn -0.932782 0.309017 0.185542
vn -0.932782 -0.309017 0.185542
vn -0.576491 -0.809017 0.114671
vn -0.000000 -1.000000 0.000000
vn 0.576491 -0.809017 -0.114671
vn 0.932782 -0.309017 -0.185542
vn 0.932782 0.309017 0.185542
vn 0.576491 0.809017 0.114671
vn 0.000000 1.000000 0.000000
vn -0.576491 0.809017 -0.114671
vn -0.932782 0.309017 -0.185542
vn -0.932782 -0.309017 -0.185542
vn -0.576491 -0.809017 -0.114671
vn -0.000000 -1.000000 -0.000000
vn 0.576491 -0.809017 0.114671
vn 0.932782 -0.309017 0.185542
vn 0.790775 0.309017 0.528379
vn 0.488726 0.809017 0.326556
vn 0.000000 1.000000 0.000000
vn -0.488726 0.809017 -0.326556
vn -0.790775 0.309017 -0.528379
vn -0.790775 -0.309017 -0.528379
vn -0.488726 -0.809017 -0.326556
vn -0.000000 -1.000000 -0.000000
vn 0.488726 -0.809017 0.326556
vn 0.790775 -0.309017 0.528379
vn 0.528379 0.309017 0.790775
vn 0.326556 0.809017 0.488726
vn 0.000000 1.000000 0.000000
vn -0.326556 0.809017 -0.488726
vn -0.528379 0.309017 -0.790775
vn -0.528379 -0.309017 -0.790775
vn -0.326556 -0.809017 -0.488726
vn -0.000000 -1.000000 -0.000000
vn 0.326556 -0.809017 0.488726
vn 0.528379 -0.309017 0.790775
vn 0.185542 0.309017 0.932782
vn 0.114671 0.809017 0.576491
vn 0.000000 1.000000 0.000000
vn -0.114671 0.809017 -0.576491
vn -0.185542 0.309017 -0.932782
vn -0.185542 -0.309017 -0.932782
vn -0.114671 -0.809017 -0.576491
vn -0.000000 -1.000000 -0.000000
vn 0.114671 -0.809017 0.576491
vn 0.185542 -0.309017 0.932782
vn -0.185542 0.309017 0.932782
vn -0.114671 0.809017 0.576491
vn -0.000000 1.000000 0.000000
vn 0.114671 0.809017 -0.576491
vn 0.185542 0.309017 -0.932782
vn 0.185542 -0.309017 -0.932782
vn 0.114671 -0.809017 -0.576491
vn 0.000000 -1.000000 -0.000000
vn -0.114671 -0.809017 0.576491
vn -0.185542 -0.309017 0.932782
vn -0.528379 0.309017 0.790775
vn -0.326556 0.809017 0.488726
vn -0.000000 1.000000 0.000000
vn 0.326556 0.809017 -0.488726
vn 0.528379 0.309017 -0.790775
vn 0.528379 -0.309017 -0.790775
vn 0.326556 -0.809017 -0.488726
vn 0.000000 -1.000000 -0.000000
vn -0.326556 -0.809017 0.488726
vn -0.528379 -0.309017 0.790775
vn -0.790775 0.309017 0.528379
vn -0.488726 0.809017 0.326556
vn -0.000000 1.000000 0.000000
vn 0.488726 0.809017 -0.326556
vn 0.790775 0.309017 -0.528379
vn 0.790775 -0.309017 -0.528379
vn 0.488726 -0.809017 -0.326556
vn 0.000000 -1.000000 -0.000000
vn -0.488726 -0.809017 0.326556
vn -0.790775 -0.309017 0.528379
vn -0.932782 0.309017 0.185542
vn -0.576491 0.809017 0.114671
vn -0.000000 1.000000 0.000000
vn 0.576491 0.809017 -0.114671
vn 0.932782 0.309017 -0.185542
vn 0.932782 -0.309017 -0.185542
vn 0.576491 -0.809017 -0.114671
vn 0.000000 -1.000000 -0.000000
vn -0.576491 -0.809017 0.114671
vn -0.932782 -0.309017 0.185542
vn -0.932782 0.309017 -0.185542
vn -0.576491 0.809017 -0.114671
vn -0.000000 1.000000 -0.000000
vn 0.576491 0.809017 0.114671
vn 0.932782 0.309017 0.185542
vn 0.932782 -0.309017 0.185542
vn 0.576491 -0.809017 0.114671
vn 0.000000 -1.000000 0.000000
vn -0.576491 -0.809017 -0.114671
vn -0.932782 -0.309017 -0.185542
vn -0.790775 0.309017 -0.528379
vn -0.488726 0.809017 -0.326556
vn -0.000000 1.000000 -0.000000
vn 0.488726 0.809017 0.326556
vn 0.790775 0.309017 0.528379
vn 0.790775 -0.309017 0.528379
vn 0.488726 -0.809017 0.326556
vn 0.000000 -1.000000 0.000000
vn -0.488726 -0.809017 -0.326556
vn -0.790775 -0.309017 -0.528379
vn -0.528379 0.309017 -0.790775
vn -0.326556 0.809017 -0.488726
vn -0.000000 1.000000 -0.000000
vn 0.326556 0.809017 0.488726
vn 0.528379 0.309017 0.790775
vn 0.528379 -0.309017 0.790775
vn 0.326556 -0.809017 0.488726
vn 0.000000 -1.000000 0.000000
vn -0.326556 -0.809017 -0.488726
vn -0.528379 -0.309017 -0.790775
vn -0.185542 0.309017 -0.932782
vn -0.114671 0.809017 -0.576491
vn -0.000000 1.000000 -0.000000
vn 0.114671 0.809017 0.576491
vn 0.185542 0.309017 0.932782
vn 0.185542 -0.309017 0.932782
vn 0.114671 -0.809017 0.576491
vn 0.000000 -1.000000 0.000000
vn -0.114671 -0.809017 -0.576491
vn -0.185542 -0.309017 -0.932782
vn 0.185542 0.309017 -0.932782
vn 0.114671 0.809017 -0.576491
vn 0.000000 1.000000 -0.000000
vn -0.114671 0.809017 0.576491
vn -0.185542 0.309017 0.932782
vn -0.185542 -0.309017 0.932782
vn -0.114671 -0.809017 0.576491
vn -0.000000 -1.000000 0.000000
vn 0.114671 -0.809017 -0.576491
vn 0.185542 -0.309017 -0.932782
vn 0.528379 0.309017 -0.790775
vn 0.326556 0.809017 -0.488726
vn 0.000000 1.000000 -0.000000
vn -0.326556 0.809017 0.488726
vn -0.528379 0.309017 0.790775
vn -0.528379 -0.309017 0.790775
vn -0.326556 -0.809017 0.488726
vn -0.000000 -1.000000 0.000000
vn 0.326556 -0.809017 -0.488726
vn 0.528379 -0.309017 -0.790775
vn 0.790775 0.309017 -0.528379
vn 0.488726 0.809017 -0.326556
vn 0.000000 1.000000 -0.000000
vn -0.488726 0.809017 0.326556
vn -0.790775 0.309017 0.528379
vn -0.790775 -0.309017 0.528379
vn -0.488726 -0.809017 0.326556
vn -0.000000 -1.000000 0.000000
vn 0.488726 -0.809017 -0.326556
vn 0.790775 -0.309017 -0.528379
vn 0.932782 0.309017 -0.185542
vn 0.576491 0.809017 -0.114671
vn 0.000000 1.000000 -0.000000
vn -0.576491 0.809017 0.114671
vn -0.932782 0.309017 0.185542
vn -0.932782 -0.309017 0.185542
vn -0.576491 -0.809017 0.114671
vn -0.000000 -1.000000 0.000000
vn 0.576491 -0.809017 -0.114671
vn 0.932782 -0.309017 -0.185542
vn 0.932782 0.309017 0.185542
vn 0.576491 0.809017 0.114671
vn 0.000000 1.000000 0.000000
vn -0.576491 0.809017 -0.114671
vn -0.932782 0.309017 -0.185542
vn -0.932782 -0.309017 -0.185542
vn -0.576491 -0.809017 -0.114671
vn -0.000000 -1.000000 -0.000000
vn 0.576491 -0.809017 0.114671
vn 0.932782 -0.309017 0.185542
vn 0.790775 0.309017 0.528379
vn 0.488726 0.809017 0.326556
vn 0.000000 1.000000 0.000000
vn -0.488726 0.809017 -0.326556
vn -0.790775 0.309017 -0.528379
vn -0.790775 -0.309017 -0.528379
vn -0.488726 -0.809017 -0.326556
vn -0.000000 -1.000000 -0.000000
vn 0.488726 -0.809017 0.326556
vn 0.790775 -0.309017 0.528379
vn 0.528379 0.309017 0.790775
vn 0.326556 0.809017 0.488726
vn 0.000000 1.000000 0.000000
vn -0.326556 0.809017 -0.488726
vn -0.528379 0.309017 -0.790775
vn -0.528379 -0.309017 -0.790775
vn -0.326556 -0.809017 -0.488726
vn -0.000000 -1.000000 -0.000000
vn 0.326556 -0.809017 0.488726
vn 0.528379 -0.309017 0.790775
vn 0.185542 0.309017 0.932782
vn 0.114671 0.809017 0.576491
vn 0.000000 1.000000 0.000000
vn -0.114671 0.809017 -0.576491
vn -0.185542 0.309017 -0.932782
vn -0.185542 -0.309017 -0.932782
vn -0.114671 -0.809017 -0.576491
vn -0.000000 -1.000000 -0.000000
vn 0.114671 -0.809017 0.576491
vn 0.185542 -0.309017 0.932782
vn -0.185542 0.309017 0.932782
vn -0.114671 0.809017 0.576491
vn -0.000000 1.000000 0.000000
vn 0.114671 0.809017 -0.576491
vn 0.185542 0.309017 -0.932782
vn 0.185542 -0.309017 -0.932782
vn 0.114671 -0.809017 -0.576491
vn 0.000000 -1.000000 -0.000000
vn -0.114671 -0.809017 0.576491
vn -0.185542 -0.309017 0.932782
vn -0.528379 0.309017 0.790775
vn -0.326556 0.809017 0.488726
vn -0.000000 1.000000 0.000000
vn 0.326556 0.809017 -0.488726
vn 0.528379 0.309017 -0.790775
vn 0.528379 -0.309017 -0.790775
vn 0.326556 -0.809017 -0.488726
vn 0.000000 -1.000000 -0.000000
vn -0.326556 -0.809017 0.488726
vn -0.528379 -0.309017 0.790775
vn -0.790775 0.309017 0.528379
vn -0.488726 0.809017 0.326556
vn -0.000000 1.000000 0.000000
vn 0.488726 0.809017 -0.326556
vn 0.790775 0.309017 -0.528379
vn 0.790775 -0.309017 -0.528379
vn 0.488726 -0.809017 -0.326556
vn 0.000000 -1.000000 -0.000000
vn -0.488726 -0.809017 0.326556
vn -0.790775 -0.309017 0.528379
vn -0.932782 0.309017 0.185542
vn -0.576491 0.809017 0.114671
vn -0.000000 1.000000 0.000000
vn 0.576491 0.809017 -0.114671
vn 0.932782 0.309017 -0.185542
vn 0.932782 -0.309017 -0.185542
vn 0.576491 -0.809017 -0.114671
vn 0.000000 -1.000000 -0.000000
vn -0.576491 -0.809017 0.114671
vn -0.932782 -0.309017 0.185542
vn -0.932782 0.309017 -0.185542
vn -0.576491 0.809017 -0.114671
vn -0.000000 1.000000 -0.000000
vn 0.576491 0.809017 0.114671
vn 0.932782 0.309017 0.185542
vn 0.932782 -0.309017 0.185542
vn 0.576491 -0.809017 0.114671
vn 0.000000 -1.000000 0.000000
vn -0.576491 -0.809017 -0.114671
vn -0.932782 -0.309017 -0.185542
vn -0.790775 0.309017 -0.528379
vn -0.488726 0.809017 -0.326556
vn -0.000000 1.000000 -0.000000
vn 0.488726 0.809017 0.326556
vn 0.790775 0.309017 0.528379
vn 0.790775 -0.309017 0.528379
vn 0.488726 -0.809017 0.326556
vn 0.000000 -1.000000 0.000000
vn -0.488726 -0.809017 -0.326556
vn -0.790775 -0.309017 -0.528379
vn -0.528379 0.309017 -0.790775
vn -0.326556 0.809017 -0.488726
vn -0.000000 1.000000 -0.000000
vn 0.326556 0.809017 0.488726
vn 0.528379 0.309017 0.790775
vn 0.528379 -0.309017 0.790775
vn 0.326556 -0.809017 0.488726
vn 0.000000 -1.000000 0.000000
vn -0.326556 -0.809017 -0.488726
vn -0.528379 -0.309017 -0.790775
vn -0.185542 0.309017 -0.932782
vn -0.114671 0.809017 -0.576491
vn -0.000000 1.000000 -0.000000
vn 0.114671 0.809017 0.576491
vn 0.185542 0.309017 0.932782
vn 0.185542 -0.309017 0.932782
vn 0.114671 -0.809017 0.576491
vn 0.000000 -1.000000 0.000000
vn -0.114671 -0.809017 -0.576491
vn -0.185542 -0.309017 -0.932782
vn 0.185542 0.309017 -0.932782
vn 0.114671 0.809017 -0.576491
vn 0.000000 1.000000 -0.000000
vn -0.114671 0.809017 0.576491
vn -0.185542 0.309017 0.932782
vn -0.185542 -0.309017 0.932782
vn -0.114671 -0.809017 0.576491
vn -0.000000 -1.000000 0.000000
vn 0.114671 -0.809017 -0.576491
vn 0.185542 -0.309017 -0.932782
vn 0.528379 0.309017 -0.790775
vn 0.326556 0.809017 -0.488726
vn 0.000000 1.000000 -0.000000
vn -0.326556 0.809017 0.488726
vn -0.528379 0.309017 0.790775
vn -0.528379 -0.309017 0.790775
vn -0.326556 -0.809017 0.488726
vn -0.000000 -1.000000 0.000000
vn 0.326556 -0.809017 -0.488726
vn 0.528379 -0.309017 -0.790775
vn 0.790775 0.309017 -0.528379
vn 0.488726 0.809017 -0.326556
vn 0.000000 1.000000 -0.000000
vn -0.488726 0.809017 0.326556
vn -0.790775 0.309017 0.528379
vn -0.790775 -0.309017 0.528379
vn -0.488726 -0.809017 0.326556
vn -0.000000 -1.000000 0.000000
vn 0.488726 -0.809017 -0.326556
vn 0.790775 -0.309017 -0.528379
vn 0.932782 0.309017 -0.185542
vn 0.576491 0.809017 -0.114671
vn 0.000000 1.000000 -0.000000
vn -0.576491 0.809017 0.114671
vn -0.932782 0.309017 0.185542
vn -0.932782 -0.309017 0.185542
vn -0.576491 -0.809017 0.114671
vn -0.000000 -1.000000 0.000000
vn 0.576491 -0.809017 -0.114671
vn 0.932782 -0.309017 -0.185542
vn 0.932782 -0.037562 0.358478
vn 0.576491 0.237978 0.781681
vn 0.000000 0.422618 0.906308
vn -0.576491 0.445833 0.684756
vn -0.932782 0.298754 0.201651
vn -0.932782 0.037562 -0.358478
vn -0.576491 -0.237978 -0.781681
vn -0.000000 -0.422618 -0.906308
vn 0.576491 -0.445833 -0.684756
vn 0.932782 -0.298754 -0.201651
vn 0.790775 -0.348277 0.503367
vn 0.488726 0.045945 0.871227
vn 0.000000 0.422618 0.906308
vn -0.488726 0.637866 0.595210
vn -0.790775 0.609470 0.056762
vn -0.790775 0.348277 -0.503367
vn -0.488726 -0.045945 -0.871227
vn -0.000000 -0.422618 -0.906308
vn 0.488726 -0.637866 -0.595210
vn 0.790775 -0.609470 -0.056762
vn 0.528379 -0.586089 0.614260
vn 0.326556 -0.101030 0.939763
vn 0.000000 0.422618 0.906308
vn -0.326556 0.784841 0.526674
vn -0.528379 0.847281 -0.054131
vn -0.528379 0.586089 -0.614260
vn -0.326556 0.101030 -0.939763
vn -0.000000 -0.422618 -0.906308
vn 0.326556 -0.784841 -0.526674
vn 0.528379 -0.847281 0.054131
vn 0.185542 -0.714792 0.674275
vn 0.114671 -0.180573 0.976854
vn 0.000000 0.422618 0.906308
vn -0.114671 0.864384 0.489583
vn -0.185542 0.975984 -0.114146
vn -0.185542 0.714792 -0.674275
vn -0.114671 0.180573 -0.976854
vn -0.000000 -0.422618 -0.906308
vn 0.114671 -0.864384 -0.489583
vn 0.185542 -0.975984 0.114146
vn -0.185542 -0.714792 0.674275
vn -0.114671 -0.180573 0.976854
vn -0.000000 0.422618 0.906308
vn 0.114671 0.864384 0.489583
vn 0.185542 0.975984 -0.114146
vn 0.185542 0.714792 -0.674275
vn 0.114671 0.180573 -0.976854
vn 0.000000 -0.422618 -0.906308
vn -0.114671 -0.864384 -0.489583
vn -0.185542 -0.975984 0.114146
vn -0.528379 -0.586089 0.614260
vn -0.326556 -0.101030 0.939763
vn -0.000000 0.422618 0.906308
vn 0.326556 0.784841 0.526674
vn 0.528379 0.847281 -0.054131
vn 0.528379 0.586089 -0.614260
vn 0.326556 0.101030 -0.939763
vn 0.000000 -0.422618 -0.906308
vn -0.326556 -0.784841 -0.526674
vn -0.528379 -0.847281 0.054131
vn -0.790775 -0.348277 0.503367
vn -0.488726 0.045945 0.871227
vn -0.000000 0.422618 0.906308
vn 0.488726 0.637866 0.595210
vn 0.790775 0.609470 0.056762
vn 0.790775 0.348277 -0.503367
vn 0.488726 -0.045945 -0.871227
vn 0.000000 -0.422618 -0.906308
vn -0.488726 -0.637866 -0.595210
vn -0.790775 -0.609470 -0.056762
vn -0.932782 -0.037562 0.358478
vn -0.576491 0.237978 0.781681
vn -0.000000 0.422618 0.906308
vn 0.576491 0.445833 0.684756
vn 0.932782 0.298754 0.201651
vn 0.932782 0.037562 -0.358478
vn 0.576491 -0.237978 -0.781681
vn 0.000000 -0.422618 -0.906308
vn -0.576491 -0.445833 -0.684756
vn -0.932782 -0.298754 -0.201651
vn -0.932782 0.298754 0.201651
vn -0.576491 0.445833 0.684756
vn -0.000000 0.422618 0.906308
vn 0.576491 0.237978 0.781681
vn 0.932782 -0.037562 0.358478
vn 0.932782 -0.298754 -0.201651
vn 0.576491 -0.445833 -0.684756
vn 0.000000 -0.422618 -0.906308
vn -0.576491 -0.237978 -0.781681
vn -0.932782 0.037562 -0.358478
vn -0.790775 0.609470 0.056762
vn -0.488726 0.637866 0.595210
vn -0.000000 0.422618 0.906308
vn 0.488726 0.045945 0.871227
vn 0.790775 -0.348277 0.503367
vn 0.790775 -0.609470 -0.056762
vn 0.488726 -0.637866 -0.595210
vn 0.000000 -0.422618 -0.906308
vn -0.488726 -0.045945 -0.871227
vn -0.790775 0.348277 -0.503367
vn -0.528379 0.847281 -0.054131
vn -0.326556 0.784841 0.526674
vn -0.000000 0.422618 0.906308
vn 0.326556 -0.101030 0.939763
vn 0.528379 -0.586089 0.614260
vn 0.528379 -0.847281 0.054131
vn 0.326556 -0.784841 -0.526674
vn 0.000000 -0.422618 -0.906308
vn -0.326556 0.101030 -0.939763
vn -0.528379 0.586089 -0.614260
vn -0.185542 0.975984 -0.114146
vn -0.114671 0.864384 0.489583
vn -0.000000 0.422618 0.906308
vn 0.114671 -0.180573 0.976854
vn 0.185542 -0.714792 0.674275
vn 0.185542 -0.975984 0.114146
vn 0.114671 -0.864384 -0.489583
vn 0.000000 -0.422618 -0.906308
vn -0.114671 0.180573 -0.976854
vn -0.185542 0.714792 -0.674275
vn 0.185542 0.975984 -0.114146
vn 0.114671 0.864384 0.489583
vn 0.000000 0.422618 0.906308
vn -0.114671 -0.180573 0.976854
vn -0.185542 -0.714792 0.674275
vn -0.185542 -0.975984 0.114146
vn -0.114671 -0.864384 -0.489583
vn -0.000000 -0.422618 -0.906308
vn 0.114671 0.180573 -0.976854
vn 0.185542 0.714792 -0.674275
vn 0.528379 0.847281 -0.054131
vn 0.326556 0.784841 0.526674
vn 0.000000 0.422618 0.906308
vn -0.326556 -0.101030 0.939763
vn -0.528379 -0.586089 0.614260
vn -0.528379 -0.847281 0.054131
vn -0.326556 -0.784841 -0.526674
vn -0.000000 -0.422618 -0.906308
vn 0.326556 0.101030 -0.939763
vn 0.528379 0.586089 -0.614260
vn 0.790775 0.609470 0.056762
vn 0.488726 0.637866 0.595210
vn 0.000000 0.422618 0.906308
vn -0.488726 0.045945 0.871227
vn -0.790775 -0.348277 0.503367
vn -0.790775 -0.609470 -0.056762
vn -0.488726 -0.637866 -0.595210
vn -0.000000 -0.422618 -0.906308
vn 0.488726 -0.045945 -0.871227
vn 0.790775 0.348277 -0.503367
vn 0.932782 0.298754 0.201651
vn 0.576491 0.445833 0.684756
vn 0.000000 0.422618 0.906308
vn -0.576491 0.237978 0.781681
vn -0.932782 -0.037562 0.358478
vn -0.932782 -0.298754 -0.201651
vn -0.576491 -0.445833 -0.684756
vn -0.000000 -0.422618 -0.906308
vn 0.576491 -0.237978 -0.781681
vn 0.932782 0.037562 -0.358478
usemtl rubber
f 1//1 2//1 12//1 11//1
f 2//2 3//2 13//2 12//2
f 3//3 4//3 14//3 13//3
f 4//4 5//4 15//4 14//4
f 5//5 6//5 16//5 15//5
f 6//6 7//6 17//6 16//6
f 7//7 8//7 18//7 17//7
f 8//8 9//8 19//8 18//8
f 9//9 10//9 20//9 19//9
f 10//10 1//10 11//10 20//10
f 11//11 12//11 22//11 21//11
f 12//12 13//12 23//12 22//12
f 13//13 14//13 24//13 23//13
f 14//14 15//14 25//14 24//14
f 15//15 16//15 26//15 25//15
f 16//16 17//16 27//16 26//16
f 17//17 18//17 28//17 27//17
f 18//18 19//18 29//18 28//18
f 19//19 20//19 30//19 29//19
f 20//20 11//20 21//20 30//20
f 21//21 22//21 32//21 31//21
f 22//22 23//22 33//22 32//22
f 23//23 24//23 34//23 33//23
f 24//24 25//24 35//24 34//24
f 25//25 26//25 36//25 35//25
f 26//26 27//26 37//26 36//26
f 27//27 28//27 38//27 37//27
f 28//28 29//28 39//28 38//28
f 29//29 30//29 40//29 39//29
f 30//30 21//30 31//30 40//30
f 31//31 32//31 42//31 41//31
f 32//32 33//32 43//32 42//32
f 33//33 34//33 44//33 43//33
f 34//34 35//34 45//34 44//34
f 35//35 36//35 46//35 45//35
f 36//36 37//36 47//36 46//36
f 37//37 38//37 48//37 47//37
f 38//38 39//38 49//38 48//38
f 39//39 40//39 50//39 49//39
f 40//40 31//40 41//40 50//40
f 41//41 42//41 52//41 51//41
f 42//42 43//42 53//42 52//42
f 43//43 44//43 54//43 53//43
f 44//44 45//44 55//44 54//44
f 45//45 46//45 56//45 55//45
f 46//46 47//46 57//46 56//46
f 47//47 48//47 58//47 57//47
f 48//48 49//48 59//48 58//48
f 49//49 50//49 60//49 59//49
f 50//50 41//50 51//50 60//50
f 51//51 52//51 62//51 61//51
f 52//52 53//52 63//52 62//52
f 53//53 54//53 64//53 63//53
f 54//54 55//54 65//54 64//54
f 55//55 56//55 66//55 65//55
f 56//56 57//56 67//56 66//56
f 57//57 58//57 68//57 67//57
f 58//58 59//58 69//58 68//58
f 59//59 60//59 70//59 69//59
f 60//60 51//60 61//60 70//60
f 61//61 62//61 72//61 71//61
f 62//62 63//62 73//62 72//62
f 63//63 64//63 74//63 73//63
f 64//64 65//64 75//64 74//64
f 65//65 66//65 76//65 75//65
f 66//66 67//66 77//66 76//66
f 67//67 68//67 78//67 77//67
f 68//68 69//68 79//68 78//68
f 69//69 70//69 80//69 79//69
f 70//70 61//70 71//70 80//70
f 71//71 72//71 82//71 81//71
f 72//72 73//72 83//72 82//72
f 73//73 74//73 84//73 83//73
f 74//74 75//74 85//74 84//74
f 75//75 76//75 86//75 85//75
f 76//76 77//76 87//76 86//76
f 77//77 78//77 88//77 87//77
f 78//78 79//78 89//78 88//78
f 79//79 80//79 90//79 89//79
f 80//80 71//80 81//80 90//80
f 81//81 82//81 92//81 91//81
f 82//82 83//82 93//82 92//82
f 83//83 84//83 94//83 93//83
f 84//84 85//84 95//84 94//84
f 85//85 86//85 96//85 95//85
f 86//86 87//86 97//86 96//86
f 87//87 88//87 98//87 97//87
f 88//88 89//88 99//88 98//88
f 89//89 90//89 100//89 99//89
f 90//90 81//90 91//90 100//90
f 91//91 92//91 102//91 101//91
f 92//92 93//92 103//92 102//92
f 93//93 94//93 104//93 103//93
f 94//94 95//94 105//94 104//94
f 95//95 96//95 106//95 105//95
f 96//96 97//96 107//96 106//96
f 97//97 98//97 108//97 107//97
f 98//98 99//98 109//98 108//98
f 99//99 100//99 110//99 109//99
f 100//100 91//100 101//100 110//100
f 101//101 102//101 112//101 111//101
f 102//102 103//102 113//102 112//102
f 103//103 104//103 114//103 113//103
f 104//104 105//104 115//104 114//104
f 105//105 106//105 116//105 115//105
f 106//106 107//106 117//106 116//106
f 107//107 108//107 118//107 117//107
f 108//108 109//108 119//108 118//108
f 109//109 110//109 120//109 119//109
f 110//110 101//110 111//110 120//110
f 111//111 112//111 122//111 121//111
f 112//112 113//112 123//112 122//112
f 113//113 114//113 124//113 123//113
f 114//114 115//114 125//114 124//114
f 115//115 116//115 126//115 125//115
f 116//116 117//116 127//116 126//116
f 117//117 118//117 128//117 127//117
f 118//118 119//118 129//118 128//118
f 119//119 120//119 130//119 129//119
f 120//120 111//120 121//120 130//120
f 121//121 122//121 132//121 131//121
f 122//122 123//122 133//122 132//122
f 123//123 124//123 134//123 133//123
f 124//124 125//124 135//124 134//124
f 125//125 126//125 136//125 135//125
f 126//126 127//126 137//126 136//126
f 127//127 128//127 138//127 137//127
f 128//128 129//128 139//128 138//128
f 129//129 130//129 140//129 139//129
f 130//130 121//130 131//130 140//130
f 131//131 132//131 142//131 141//131
f 132//132 133//132 143//132 142//132
f 133//133 134//133 144//133 143//133
f 134//134 135//134 145//134 144//134
f 135//135 136//135 146//135 145//135
f 136//136 137//136 147//136 146//136
f 137//137 138//137 148//137 147//137
f 138//138 139//138 149//138 148//138
f 139//139 140//139 150//139 149//139
f 140//140 131//140 141//140 150//140
f 141//141 142//141 152//141 151//141
f 142//142 143//142 153//142 152//142
f 143//143 144//143 154//143 153//143
f 144//144 145//144 155//144 154//144
f 145//145 146//145 156//145 155//145
f 146//146 147//146 157//146 156//146
f 147//147 148//147 158//147 157//147
f 148//148 149//148 159//148 158//148
f 149//149 150//149 160//149 159//149
f 150//150 141//150 151//150 160//150
f 151//151 152//151 2//151 1//151
f 152//152 153//152 3//152 2//152
f 153//153 154//153 4//153 3//153
f 154//154 155//154 5//154 4//154
f 155//155 156//155 6//155 5//155
f 156//156 157//156 7//156 6//156
f 157//157 158//157 8//157 7//157
f 158//158 159//158 9//158 8//158
f 159//159 160//159 10//159 9//159
f 160//160 151//160 1//160 10//160
f 161//161 162//161 172//161 171//161
f 162//162 163//162 173//162 172//162
f 163//163 164//163 174//163 173//163
f 164//164 165//164 175//164 174//164
f 165//165 166//165 176//165 175//165
f 166//166 167//166 177//166 176//166
f 167//167 168//167 178//167 177//167
f 168//168 169//168 179//168 178//168
f 169//169 170//169 180//169 179//169
f 170//170 161//170 171//170 180//170
f 171//171 172//171 182//171 181//171
f 172//172 173//172 183//172 182//172
f 173//173 174//173 184//173 183//173
f 174//174 175//174 185//174 184//174
f 175//175 176//175 186//175 185//175
f 176//176 177//176 187//176 186//176
f 177//177 178//177 188//177 187//177
f 178//178 179//178 189//178 188//178
f 179//179 180//179 190//179 189//179
f 180//180 171//180 181//180 190//180
f 181//181 182//181 192//181 191//181
f 182//182 183//182 193//182 192//182
f 183//183 184//183 194//183 193//183
f 184//184 185//184 195//184 194//184
f 185//185 186//185 196//185 195//185
f 186//186 187//186 197//186 196//186
f 187//187 188//187 198//187 197//187
f 188//188 189//188 199//188 198//188
f 189//189 190//189 200//189 199//189
f 190//190 181//190 191//190 200//190
f 191//191 192//191 202//191 201//191
f 192//192 193//192 203//192 202//192
f 193//193 194//193 204//193 203//193
f 194//194 195//194 205//194 204//194
f 195//195 196//195 206//195 205//195
f 196//196 197//196 207//196 206//196
f 197//197 198//197 208//197 207//197
f 198//198 199//198 209//198 208//198
f 199//199 200//199 210//199 209//199
f 200//200 191//200 201//200 210//200
f 201//201 202//201 212//201 211//201
f 202//202 203//202 213//202 212//202
f 203//203 204//203 214//203 213//203
f 204//204 205//204 215//204 214//204
f 205//205 206//205 216//205 215//205
f 206//206 207//206 217//206 216//206
f 207//207 208//207 218//207 217//207
f 208//208 209//208 219//208 218//208
f 209//209 210//209 220//209 219//209
f 210//210 201//210 211//210 220//210
f 211//211 212//211 222//211 221//211
f 212//212 213//212 223//212 222//212
f 213//213 214//213 224//213 223//213
f 214//214 215//214 225//214 224//214
f 215//215 216//215 226//215 225//215
f 216//216 217//216 227//216 226//216
f 217//217 218//217 228//217 227//217
f 218//218 219//218 229//218 228//218
f 219//219 220//219 230//219 229//219
f 220//220 211//220 221//220 230//220
f 221//221 222//221 232//221 231//221
f 222//222 223//222 233//222 232//222
f 223//223 224//223 234//223 233//223
f 224//224 225//224 235//224 234//224
f 225//225 226//225 236//225 235//225
f 226//226 227//226 237//226 236//226
f 227//227 228//227 238//227 237//227
f 228//228 229//228 239//228 238//228
f 229//229 230//229 240//229 239//229
f 230//230 221//230 231//230 240//230
f 231//231 232//231 242//231 241//231
f 232//232 233//232 243//232 242//232
f 233//233 234//233 244//233 243//233
f 234//234 235//234 245//234 244//234
f 235//235 236//235 246//235 245//235
f 236//236 237//236 247//236 246//236
f 237//237 238//237 248//237 247//237
f 238//238 239//238 249//238 248//238
f 239//239 240//239 250//239 249//239
f 240//240 231//240 241//240 250//240
f 241//241 242//241 252//241 251//241
f 242//242 243//242 253//242 252//242
f 243//243 244//243 254//243 253//243
f 244//244 245//244 255//244 254//244
f 245//245 246//245 256//245 255//245
f 246//246 247//246 257//246 256//246
f 247//247 248//247 258//247 257//247
f 248//248 249//248 259//248 258//248
f 249//249 250//249 260//249 259//249
f 250//250 241//250 251//250 260//250
f 251//251 252//251 262//251 261//251
f 252//252 253//252 263//252 262//252
f 253//253 254//253 264//253 263//253
f 254//254 255//254 265//254 264//254
f 255//255 256//255 266//255 265//255
f 256//256 257//256 267//256 266//256
f 257//257 258//257 268//257 267//257
f 258//258 259//258 269//258 268//258
f 259//259 260//259 270//259 269//259
f 260//260 251//260 261//260 270//260
f 261//261 262//261 272//261 271//261
f 262//262 263//262 273//262 272//262
f 263//263 264//263 274//263 273//263
f 264//264 265//264 275//264 274//264
f 265//265 266//265 276//265 275//265
f 266//266 267//266 277//266 276//266
f 267//267 268//267 278//267 277//267
f 268//268 269//268 279//268 278//268
f 269//269 270//269 280//269 279//269
f 270//270 261//270 271//270 280//270
f 271//271 272//271 282//271 281//271
f 272//272 273//272 283//272 282//272
f 273//273 274//273 284//273 283//273
f 274//274 275//274 285//274 284//274
f 275//275 276//275 286//275 285//275
f 276//276 277//276 287//276 286//276
f 277//277 278//277 288//277 287//277
f 278//278 279//278 289//278 288//278
f 279//279 280//279 290//279 289//279
f 280//280 271//280 281//280 290//280
f 281//281 282//281 292//281 291//281
f 282//282 283//282 293//282 292//282
f 283//283 284//283 294//283 293//283
f 284//284 285//284 295//284 294//284
f 285//285 286//285 296//285 295//285
f 286//286 287//286 297//286 296//286
f 287//287 288//287 298//287 297//287
f 288//288 289//288 299//288 298//288
f 289//289 290//289 300//289 299//289
f 290//290 281//290 291//290 300//290
f 291//291 292//291 302//291 301//291
f 292//292 293//292 303//292 302//292
f 293//293 294//293 304//293 303//293
f 294//294 295//294 305//294 304//294
f 295//295 296//295 306//295 305//295
f 296//296 297//296 307//296 306//296
f 297//297 298//297 308//297 307//297
f 298//298 299//298 309//298 308//298
f 299//299 300//299 310//299 309//299
f 300//300 291//300 301//300 310//300
f 301//301 302//301 312//301 311//301
f 302//302 303//302 313//302 312//302
f 303//303 304//303 314//303 313//303
f 304//304 305//304 315//304 314//304
f 305//305 306//305 316//305 315//305
f 306//306 307//306 317//306 316//306
f 307//307 308//307 318//307 317//307
f 308//308 309//308 319//308 318//308
f 309//309 310//309 320//309 319//309
f 310//310 301//310 311//310 320//310
f 311//311 312//311 162//311 161//311
f 312//312 313//312 163//312 162//312
f 313//313 314//313 164//313 163//313
f 314//314 315//314 165//314 164//314
f 315//315 316//315 166//315 165//315
f 316//316 317//316 167//316 166//316
f 317//317 318//317 168//317 167//317
f 318//318 319//318 169//318 168//318
f 319//319 320//319 170//319 169//319
f 320//320 311//320 161//320 170//320
f 321//321 322//321 332//321 331//321
f 322//322 323//322 333//322 332//322
f 323//323 324//323 334//323 333//323
f 324//324 325//324 335//324 334//324
f 325//325 326//325 336//325 335//325
f 326//326 327//326 337//326 336//326
f 327//327 328//327 338//327 337//327
f 328//328 329//328 339//328 338//328
f 329//329 330//329 340//329 339//329
f 330//330 321//330 331//330 340//330
f 331//331 332//331 342//331 341//331
f 332//332 333//332 343//332 342//332
f 333//333 334//333 344//333 343//333
f 334//334 335//334 345//334 344//334
f 335//335 336//335 346//335 345//335
f 336//336 337//336 347//336 346//336
f 337//337 338//337 348//337 347//337
f 338//338 339//338 349//338 348//338
f 339//339 340//339 350//339 349//339
f 340//340 331//340 341//340 350//340
f 341//341 342//341 352//341 351//341
f 342//342 343//342 353//342 352//342
f 343//343 344//343 354//343 353//343
f 344//344 345//344 355//344 354//344
f 345//345 346//345 356//345 355//345
f 346//346 347//346 357//346 356//346
f 347//347 348//347 358//347 357//347
f 348//348 349//348 359//348 358//348
f 349//349 350//349 360//349 359//349
f 350//350 341//350 351//350 360//350
f 351//351 352//351 362//351 361//351
f 352//352 353//352 363//352 362//352
f 353//353 354//353 364//353 363//353
f 354//354 355//354 365//354 364//354
f 355//355 356//355 366//355 365//355
f 356//356 357//356 367//356 366//356
f 357//357 358//357 368//357 367//357
f 358//358 359//358 369//358 368//358
f 359//359 360//359 370//359 369//359
f 360//360 351//360 361//360 370//360
f 361//361 362//361 372//361 371//361
f 362//362 363//362 373//362 372//362
f 363//363 364//363 374//363 373//363
f 364//364 365//364 375//364 374//364
f 365//365 366//365 376//365 375//365
f 366//366 367//366 377//366 376//366
f 367//367 368//367 378//367 377//367
f 368//368 369//368 379//368 378//368
f 369//369 370//369 380//369 379//369
f 370//370 361//370 371//370 380//370
f 371//371 372//371 382//371 381//371
f 372//372 373//372 383//372 382//372
f 373//373 374//373 384//373 383//373
f 374//374 375//374 385//374 384//374
f 375//375 376//375 386//375 385//375
f 376//376 377//376 387//376 386//376
f 377//377 378//377 388//377 387//377
f 378//378 379//378 389//378 388//378
f 379//379 380//379 390//379 389//379
f 380//380 371//380 381//380 390//380
f 381//381 382//381 392//381 391//381
f 382//382 383//382 393//382 392//382
f 383//383 384//383 394//383 393//383
f 384//384 385//384 395//384 394//384
f 385//385 386//385 396//385 395//385
f 386//386 387//386 397//386 396//386
f 387//387 388//387 398//387 397//387
f 388//388 389//388 399//388 398//388
f 389//389 390//389 400//389 399//389
f 390//390 381//390 391//390 400//390
f 391//391 392//391 402//391 401//391
f 392//392 393//392 403//392 402//392
f 393//393 394//393 404//393 403//393
f 394//394 395//394 405//394 404//394
f 395//395 396//395 406//395 405//395
f 396//396 397//396 407//396 406//396
f 397//397 398//397 408//397 407//397
f 398//398 399//398 409//398 408//398
f 399//399 400//399 410//399 409//399
f 400//400 391//400 401//400 410//400
f 401//401 402//401 412//401 411//401
f 402//402 403//402 413//402 412//402
f 403//403 404//403 414//403 413//403
f 404//404 405//404 415//404 414//404
f 405//405 406//405 416//405 415//405
f 406//406 407//406 417//406 416//406
f 407//407 408//407 418//407 417//407
f 408//408 409//408 419//408 418//408
f 409//409 410//409 420//409 419//409
f 410//410 401//410 411//410 420//410
f 411//411 412//411 422//411 421//411
f 412//412 413//412 423//412 422//412
f 413//413 414//413 424//413 423//413
f 414//414 415//414 425//414 424//414
f 415//415 416//415 426//415 425//415
f 416//416 417//416 427//416 426//416
f 417//417 418//417 428//417 427//417
f 418//418 419//418 429//418 428//418
f 419//419 420//419 430//419 429//419
f 420//420 411//420 421//420 430//420
f 421//421 422//421 432//421 431//421
f 422//422 423//422 433//422 432//422
f 423//423 424//423 434//423 433//423
f 424//424 425//424 435//424 434//424
f 425//425 426//425 436//425 435//425
f 426//426 427//426 437//426 436//426
f 427//427 428//427 438//427 437//427
f 428//428 429//428 439//428 438//428
f 429//429 430//429 440//429 439//429
f 430//430 421//430 431//430 440//430
f 431//431 432//431 442//431 441//431
f 432//432 433//432 443//432 442//432
f 433//433 434//433 444//433 443//433
f 434//434 435//434 445//434 444//434
f 435//435 436//435 446//435 445//435
f 436//436 437//436 447//436 446//436
f 437//437 438//437 448//437 447//437
f 438//438 439//438 449//438 448//438
f 439//439 440//439 450//439 449//439
f 440//440 431//440 441//440 450//440
f 441//441 442//441 452//441 451//441
f 442//442 443//442 453//442 452//442
f 443//443 444//443 454//443 453//443
f 444//444 445//444 455//444 454//444
f 445//445 446//445 456//445 455//445
f 446//446 447//446 457//446 456//446
f 447//447 448//447 458//447 457//447
f 448//448 449//448 459//448 458//448
f 449//449 450//449 460//449 459//449
f 450//450 441//450 451//450 460//450
f 451//451 452//451 462//451 461//451
f 452//452 453//452 463//452 462//452
f 453//453 454//453 464//453 463//453
f 454//454 455//454 465//454 464//454
f 455//455 456//455 466//455 465//455
f 456//456 457//456 467//456 466//456
f 457//457 458//457 468//457 467//457
f 458//458 459//458 469//458 468//458
f 459//459 460//459 470//459 469//459
f 460//460 451//460 461//460 470//460
f 461//461 462//461 472//461 471//461
f 462//462 463//462 473//462 472//462
f 463//463 464//463 474//463 473//463
f 464//464 465//464 475//464 474//464
f 465//465 466//465 476//465 475//465
f 466//466 467//466 477//466 476//466
f 467//467 468//467 478//467 477//467
f 468//468 469//468 479//468 478//468
f 469//469 470//469 480//469 479//469
f 470//470 461//470 471//470 480//470
f 471//471 472//471 322//471 321//471
f 472//472 473//472 323//472 322//472
f 473//473 474//473 324//473 323//473
f 474//474 475//474 325//474 324//474
f 475//475 476//475 326//475 325//475
f 476//476 477//476 327//476 326//476
f 477//477 478//477 328//477 327//477
f 478//478 479//478 329//478 328//478
f 479//479 480//479 330//479 329//479
f 480//480 471//480 321//480 330//480
f 481//481 482//481 492//481 491//481
f 482//482 483//482 493//482 492//482
f 483//483 484//483 494//483 493//483
f 484//484 485//484 495//484 494//484
f 485//485 486//485 496//485 495//485
f 486//486 487//486 497//486 496//486
f 487//487 488//487 498//487 497//487
f 488//488 489//488 499//488 498//488
f 489//489 490//489 500//489 499//489
f 490//490 481//490 491//490 500//490
f 491//491 492//491 502//491 501//491
f 492//492 493//492 503//492 502//492
f 493//493 494//493 504//493 503//493
f 494//494 495//494 505//494 504//494
f 495//495 496//495 506//495 505//495
f 496//496 497//496 507//496 506//496
f 497//497 498//497 508//497 507//497
f 498//498 499//498 509//498 508//498
f 499//499 500//499 510//499 509//499
f 500//500 491//500 501//500 510//500
f 501//501 502//501 512//501 511//501
f 502//502 503//502 513//502 512//502
f 503//503 504//503 514//503 513//503
f 504//504 505//504 515//504 514//504
f 505//505 506//505 516//505 515//505
f 506//506 507//506 517//506 516//506
f 507//507 508//507 518//507 517//507
f 508//508 509//508 519//508 518//508
f 509//509 510//509 520//509 519//509
f 510//510 501//510 511//510 520//510
f 511//511 512//511 522//511 521//511
f 512//512 513//512 523//512 522//512
f 513//513 514//513 524//513 523//513
f 514//514 515//514 525//514 524//514
f 515//515 516//515 526//515 525//515
f 516//516 517//516 527//516 526//516
f 517//517 518//517 528//517 527//517
f 518//518 519//518 529//518 528//518
f 519//519 520//519 530//519 529//519
f 520//520 511//520 521//520 530//520
f 521//521 522//521 532//521 531//521
f 522//522 523//522 533//522 532//522
f 523//523 524//523 534//523 533//523
f 524//524 525//524 535//524 534//524
f 525//525 526//525 536//525 535//525
f 526//526 527//526 537//526 536//526
f 527//527 528//527 538//527 537//527
f 528//528 529//528 539//528 538//528
f 529//529 530//529 540//529 539//529
f 530//530 521//530 531//530 540//530
f 531//531 532//531 542//531 541//531
f 532//532 533//532 543//532 542//532
f 533//533 534//533 544//533 543//533
f 534//534 535//534 545//534 544//534
f 535//535 536//535 546//535 545//535
f 536//536 537//536 547//536 546//536
f 537//537 538//537 548//537 547//537
f 538//538 539//538 549//538 548//538
f 539//539 540//539 550//539 549//539
f 540//540 531//540 541//540 550//540
f 541//541 542//541 552//541 551//541
f 542//542 543//542 553//542 552//542
f 543//543 544//543 554//543 553//543
f 544//544 545//544 555//544 554//544
f 545//545 546//545 556//545 555//545
f 546//546 547//546 557//546 556//546
f 547//547 548//547 558//547 557//547
f 548//548 549//548 559//548 558//548
f 549//549 550//549 560//549 559//549
f 550//550 541//550 551//550 560//550
f 551//551 552//551 562//551 561//551
f 552//552 553//552 563//552 562//552
f 553//553 554//553 564//553 563//553
f 554//554 555//554 565//554 564//554
f 555//555 556//555 566//555 565//555
f 556//556 557//556 567//556 566//556
f 557//557 558//557 568//557 567//557
f 558//558 559//558 569//558 568//558
f 559//559 560//559 570//559 569//559
f 560//560 551//560 561//560 570//560
f 561//561 562//561 572//561 571//561
f 562//562 563//562 573//562 572//562
f 563//563 564//563 574//563 573//563
f 564//564 565//564 575//564 574//564
f 565//565 566//565 576//565 575//565
f 566//566 567//566 577//566 576//566
f 567//567 568//567 578//567 577//567
f 568//568 569//568 579//568 578//568
f 569//569 570//569 580//569 579//569
f 570//570 561//570 571//570 580//570
f 571//571 572//571 582//571 581//571
f 572//572 573//572 583//572 582//572
f 573//573 574//573 584//573 583//573
f 574//574 575//574 585//574 584//574
f 575//575 576//575 586//575 585//575
f 576//576 577//576 587//576 586//576
f 577//577 578//577 588//577 587//577
f 578//578 579//578 589//578 588//578
f 579//579 580//579 590//579 589//579
f 580//580 571//580 581//580 590//580
f 581//581 582//581 592//581 591//581
f 582//582 583//582 593//582 592//582
f 583//583 584//583 594//583 593//583
f 584//584 585//584 595//584 594//584
f 585//585 586//585 596//585 595//585
f 586//586 587//586 597//586 596//586
f 587//587 588//587 598//587 597//587
f 588//588 589//588 599//588 598//588
f 589//589 590//589 600//589 599//589
f 590//590 581//590 591//590 600//590
f 591//591 592//591 602//591 601//591
f 592//592 593//592 603//592 602//592
f 593//593 594//593 604//593 603//593
f 594//594 595//594 605//594 604//594
f 595//595 596//595 606//595 605//595
f 596//596 597//596 607//596 606//596
f 597//597 598//597 608//597 607//597
f 598//598 599//598 609//598 608//598
f 599//599 600//599 610//599 609//599
f 600//600 591//600 601//600 610//600
f 601//601 602//601 612//601 611//601
f 602//602 603//602 613//602 612//602
f 603//603 604//603 614//603 613//603
f 604//604 605//604 615//604 614//604
f 605//605 606//605 616//605 615//605
f 606//606 607//606 617//606 616//606
f 607//607 608//607 618//607 617//607
f 608//608 609//608 619//608 618//608
f 609//609 610//609 620//609 619//609
f 610//610 601//610 611//610 620//610
f 611//611 612//611 622//611 621//611
f 612//612 613//612 623//612 622//612
f 613//613 614//613 624//613 623//613
f 614//614 615//614 625//614 624//614
f 615//615 616//615 626//615 625//615
f 616//616 617//616 627//616 626//616
f 617//617 618//617 628//617 627//617
f 618//618 619//618 629//618 628//618
f 619//619 620//619 630//619 629//619
f 620//620 611//620 621//620 630//620
f 621//621 622//621 632//621 631//621
f 622//622 623//622 633//622 632//622
f 623//623 624//623 634//623 633//623
f 624//624 625//624 635//624 634//624
f 625//625 626//625 636//625 635//625
f 626//626 627//626 637//626 636//626
f 627//627 628//627 638//627 637//627
f 628//628 629//628 639//628 638//628
f 629//629 630//629 640//629 639//629
f 630//630 621//630 631//630 640//630
f 631//631 632//631 482//631 481//631
f 632//632 633//632 483//632 482//632
f 633//633 634//633 484//633 483//633
f 634//634 635//634 485//634 484//634
f 635//635 636//635 486//635 485//635
f 636//636 637//636 487//636 486//636
f 637//637 638//637 488//637 487//637
f 638//638 639//638 489//638 488//638
f 639//639 640//639 490//639 489//639
f 640//640 631//640 481//640 490//640
